<?xml version="1.0" encoding="utf-8"?>
<!-- Generator: Adobe Illustrator 19.0.0, SVG Export Plug-In . SVG Version: 6.00 Build 0)  -->
<svg version="1.1" id="Layer_1" xmlns="http://www.w3.org/2000/svg" xmlns:xlink="http://www.w3.org/1999/xlink" x="0px" y="0px"
	 width="100" height="100" viewBox="-235 237 28 28" style="enable-background:new -235 237 28 28;" xml:space="preserve">
<style type="text/css">
	.st0{fill:#008700;}
</style>
<title>check</title>
<path class="st0" d="M-208.9,245.8c0,0.4-0.2,0.8-0.4,1.1l-13.4,13.4c-0.3,0.3-0.7,0.4-1.1,0.4s-0.8-0.2-1.1-0.4l-7.8-7.8
	c-0.3-0.3-0.4-0.7-0.4-1.1c0-0.4,0.2-0.8,0.4-1.1l2.1-2.1c0.3-0.3,0.7-0.4,1.1-0.4s0.8,0.2,1.1,0.4l4.6,4.6l10.3-10.3
	c0.3-0.3,0.7-0.4,1.1-0.4s0.8,0.2,1.1,0.4l2.1,2.1C-209,245.1-208.9,245.5-208.9,245.8L-208.9,245.8z"/>
</svg>
