<?xml version="1.0" encoding="utf-8"?>
<!-- Generator: Adobe Illustrator 19.0.0, SVG Export Plug-In . SVG Version: 6.00 Build 0)  -->
<svg version="1.1" id="Layer_1" xmlns="http://www.w3.org/2000/svg" xmlns:xlink="http://www.w3.org/1999/xlink" x="0px" y="0px"
	 viewBox="0 0 350 200" enable-background="new 0 0 350 200" xml:space="preserve">
<rect id="XMLID_1_" fill="#ABABAB" width="350" height="200"/>
<g id="XMLID_3_">
	<g id="XMLID_6_">
		<path id="XMLID_7_" fill="#6B6A6B" d="M158,136.7c-0.2,0-0.4,0-0.6-0.1c-1.1-0.2-1.9-1-2.3-2c-0.7-1.9-2.4-5.5-3.9-8.5
			c-3.7,3-9.4,5.3-15.8,2c-7.2-3.7-10.2-10.8-7.7-18c2.4-6.9,9.1-11.3,15.8-10.3c0-0.6-0.1-1.2-0.2-1.8c-0.1-0.8-0.2-1.7-0.2-2.6
			c-0.4-6.2,1.6-15.4,8.8-21c12.5-9.8,23.4-8.3,29.4-3.8c2.8,2.2,4.7,5.1,5.5,8.3c3-1.6,6.5-1.8,9.5-1c5,1.3,9.3,6.2,9.6,11
			c0.4,6.4-2.7,11.7-8.1,13.9c-2.6,1.1-5.4,1.2-8,0.7c-0.1,1.2-0.9,2.4-2.2,2.7c-1.6,0.5-3.4-0.4-3.9-2.1c-0.1-0.2-1.4-4.7-1.9-6.3
			c-0.4-1.4,0.3-2.9,1.6-3.5c1.3-0.7,2.9-0.4,3.8,0.7c2,2.4,5.4,3.2,8.3,2c2.9-1.2,4.4-4,4.2-7.8c-0.1-2-2.3-4.8-5-5.4
			c-2.8-0.7-6.7,0-8.5,4.3c-0.1,0.4-0.3,0.8-0.4,1.2c-0.6,1.5-2.4,2.3-3.9,1.7c-1.6-0.6-2.4-2.3-1.9-3.9c0.1-0.4,0.3-0.8,0.4-1.2
			c1.3-4,0.2-8-3-10.4c-6.4-4.9-15.8-1-21.8,3.7c-5.7,4.4-6.7,12-6.5,15.7c0.1,0.9,0.1,1.7,0.2,2.4c0.3,3.1,0.6,5.8-1.4,7.6
			c-1.2,1.1-2.9,1.4-5,1c-4.5-0.9-8.3,2.5-9.6,6.2c-0.6,1.6-1.9,7.1,4.7,10.5c6.4,3.3,11-3.3,11.2-3.5c0.6-0.9,1.6-1.4,2.7-1.3
			c1.1,0.1,2.1,0.7,2.6,1.7c0.1,0.3,2.5,4.8,4.4,8.8c5.5-4.7,12-8.2,12.3-8.3c1.5-0.8,3.4-0.2,4.2,1.3s0.2,3.4-1.3,4.2
			c-0.1,0-9,4.8-14,10.3C159.7,136.3,158.8,136.7,158,136.7z"/>
	</g>
	<g id="XMLID_4_">
		<path id="XMLID_5_" fill="#6B6A6B" d="M158.2,116.1c-0.5,0-1-0.1-1.5-0.4c-1.2-0.8-1.6-2.4-0.8-3.6c0.2-0.3,4.1-6.2,15.9-11.6
			c1.3-0.6,2.9,0,3.5,1.3c0.6,1.3,0,2.9-1.3,3.5c-10.2,4.7-13.7,9.6-13.7,9.7C159.9,115.7,159,116.1,158.2,116.1z"/>
	</g>
</g>
</svg>
