<?xml version="1.0" encoding="utf-8"?>
<!-- Generator: Adobe Illustrator 19.0.0, SVG Export Plug-In . SVG Version: 6.00 Build 0)  -->
<svg version="1.1" id="Layer_1" xmlns="http://www.w3.org/2000/svg" xmlns:xlink="http://www.w3.org/1999/xlink" x="0px" y="0px"
	 width="23" height="23" viewBox="-40 42 18 18" style="enable-background:new -40 42 18 18;" xml:space="preserve">
<style type="text/css">
	.st0{fill:#FF7700;}
</style>
<title>dollar</title>
<g>
	<path class="st0" d="M-31.4,59.5v-2l-0.4-0.1c-1.9-0.3-3-1.2-3.3-1.5l0.8-1.1c0.4,0.4,1.7,1.4,3.4,1.4c1.3,0,2.5-0.7,2.5-2.2
		c0-1.3-1.4-1.9-2.8-2.4c-2.1-0.8-3.8-1.6-3.8-3.7c0-1.6,1.3-2.9,3.1-3.3l0.4-0.1v-2h1v2l0.4,0c1.5,0.2,2.5,0.9,2.8,1.1l-0.6,1.2
		c-0.4-0.3-1.5-1.1-2.9-1.1c-1.6,0-2.7,0.8-2.7,2c0,1.4,1.4,2,3,2.6c1.8,0.7,3.6,1.4,3.6,3.5c0,1.8-1.3,3.2-3.2,3.5l-0.4,0.1v2
		H-31.4z"/>
</g>
</svg>
