<svg xmlns="http://www.w3.org/2000/svg" width="25" height="25" viewBox="0 0 32 32"><path d="M29.5 21h-2.7a10.95 10.95 0 0 0-.16-.706l4.8-2.4a1 1 0 1 0-.895-1.789l-4.578 2.288C24.23 14.626 20.42 12 16 12c-5.382 0-9.865 3.888-10.8 9H2.5C1.122 21 0 22.12 0 23.5a2 2 0 0 0 .505 1.329L4 28.76v.74C4 30.88 5.122 32 6.5 32h19c1.38 0 2.5-1.12 2.5-2.5v-.74l3.494-3.932A2 2 0 0 0 32 23.5c0-1.38-1.12-2.5-2.5-2.5zm-3.7 0h-.562l.498-.25.064.25zM16 13c4.03 0 7.5 2.4 9.082 5.84l-.9.445C22.775 16.17 19.645 14 16 14a9 9 0 0 0-8.77 7H6.202c.93-4.56 4.97-8 9.798-8zm4.576 8c-.773-1.763-2.53-3-4.576-3s-3.802 1.237-4.576 3H10.35c.826-2.326 3.043-4 5.65-4 2.465 0 4.588 1.496 5.508 3.627l-.932.373zM16 20c-.883 0-1.67.4-2.22 1h-1.224c.694-1.2 1.97-2 3.444-2s2.75.8 3.443 2h-1.225c-.548-.6-1.335-1-2.218-1zm0-4a7.01 7.01 0 0 0-6.705 5H8.263c.892-3.444 4.017-6 7.737-6 3.246 0 6.043 1.948 7.295 4.734l-.893.446C21.314 17.723 18.855 16 16 16zm10 12v1.5a.5.5 0 0 1-.5.5h-19a.5.5 0 0 1-.5-.5V28l-4-4.5a.5.5 0 0 1 .5-.5h27a.5.5 0 0 1 .5.5L26 28zM7.977 11.712c-.007-.014-.012-.027-.018-.042-.52-1.253-.003-2.482.463-3.6.44-1.052.832-1.984.428-2.893-.002-.004-.003-.008-.005-.012l-.003-.01c-.001-.002-.001-.004-.001-.006-.02-.053-.032-.1-.032-.17a.49.49 0 0 1 .946-.177c.558 1.27.05 2.52-.422 3.647-.438 1.042-.794 2-.42 2.892.002.007.002.013 0 .02a.47.47 0 0 1 .018.125c0 .277-.225.503-.502.503a.5.5 0 0 1-.443-.27h-.002c-.003-.006-.005-.012-.008-.018zm12.177-.146c-.006-.013-.01-.027-.016-.04-.52-1.253-.004-2.483.46-3.592.442-1.052.832-1.984.428-2.893 0-.004-.002-.008-.004-.012s-.002-.006-.004-.01v-.006a.5.5 0 0 1-.033-.169.49.49 0 0 1 .947-.177c.558 1.27.05 2.52-.422 3.647-.438 1.042-.793 2-.42 2.892.004.007.004.013.002.02.01.04.018.082.018.125 0 .277-.227.503-.504.503a.5.5 0 0 1-.443-.271h-.002c-.002-.006-.004-.012-.008-.018zM15.02 7.212L15 7.17c-.52-1.253-.004-2.483.462-3.592.44-1.052.832-1.984.428-2.893-.001-.004-.003-.008-.004-.012l-.003-.01c-.001-.002-.001-.004-.001-.006-.02-.053-.032-.1-.032-.17a.49.49 0 0 1 .49-.49.49.49 0 0 1 .457.314c.558 1.27.05 2.52-.422 3.647-.438 1.042-.794 2-.42 2.892.002.007.002.013 0 .02a.47.47 0 0 1 .018.125c0 .277-.225.503-.502.503a.5.5 0 0 1-.443-.271h-.002c-.003-.006-.005-.012-.008-.018z" fill="#e0643c"/></svg>