<svg xmlns="http://www.w3.org/2000/svg" width="100" height="100" viewBox="-31 37 36 28" style="enable-background:new -31 37 36 28;"><style><![CDATA[.C{fill:#fff}.E{fill:#373475}]]></style><path d="M5 46v10c0 .5-.4 1-1 1h-6.8c-.6 1.4-1.8 2.3-3.2 2.5a4.97 4.97 0 0 1-2.9 2c-.9 1.1-2.3 1.8-3.6 1.7-2.6 1.4-5.5.2-7.4-1.7l-4.5-4.4H-30a1.08 1.08 0 0 1-1-1V45.5a1.08 1.08 0 0 1 1-1h6.6c1.8-1.8 3.1-3.5 5.8-3.5h1.8c1 0 2 .3 2.8.9.8-.6 1.8-.9 2.8-.9h2.6c3 0 4.2 1.9 6 4H4c.6 0 1 .5 1 1zm-3 9c1.3 0 1.3-2 0-2s-1.3 2 0 2zm-3 0v-8h-1.5L-5 44.2c-.6-.8-1.6-1.2-2.6-1.2h-2.6c-.9 0-1.7.4-2.3 1l-3.3 3.8c-.6.7-.6 1.7 0 2.3a2.16 2.16 0 0 0 3.4 0l3-3.4c.7-.8 2-.1 1.7 1l1.8 2 2.3 3c.5.6.9 1.4.9 2.2H-1zm-5.7 2.5c1.9 0 2.8-2 1.7-3.4-1.2-1.6-2.4-3.3-3.8-4.7l-1.9 2.2c-1.7 2-4.8 1.9-6.5-.1-1.2-1.4-1.2-3.5 0-4.9l2.8-3.2c-1-.5-2.1-.3-3.2-.3-.9 0-1.8.4-2.5 1l-2.5 2.5H-25V55c.7 0 1.3-.1 1.9.4l4.6 4.6c1 .9 2.2 1.7 3.6 1.7.7 0 1.4-.2 1.9-.7 1.2.4 2.5-.3 2.9-1.5.8.1 1.4-.2 2-.7.3-.3.8-1 .8-1.5.1.2.4.2.6.2zM-28 55c1.3 0 1.3-2 0-2s-1.3 2 0 2z" fill="#191919"/><path class="C" d="M-1 47v8h-1.5c-.1-.8-.5-1.6-.9-2.2l-2.3-3-1.8-2c.3-1-1-1.8-1.7-1l-3 3.4c-.9 1-2.6 1-3.4 0-.6-.7-.6-1.7 0-2.3l3.3-3.8c.6-.7 1.4-1 2.3-1h2.6c1 0 2 .4 2.6 1.2l2.5 2.8H-1zm-4 7.1c1.1 1.5.2 3.4-1.7 3.4-.2 0-.5 0-.7-.2 0 .5-.4 1.2-.8 1.5-.6.5-1.2.8-2 .7-.4 1.2-1.7 1.9-2.9 1.5-.5.5-1.3.7-1.9.7-1.4 0-2.6-.8-3.6-1.7l-4.6-4.6c-.6-.5-1.2-.4-1.9-.4v-8.5h2.4l2.5-2.5c.7-.6 1.6-1 2.5-1 1 0 2.2-.2 3.2.3l-2.8 3.2c-1.2 1.4-1.2 3.5 0 4.9 1.7 2 4.8 2 6.5.1l1.9-2.2c1.5 1.5 2.7 3.2 3.9 4.8z"/><path class="E" d="M-30.1 57h4.3c.5 0 .9-.4.9-.9V45.4c0-.5-.4-.9-.9-.9h-4.3c-.5 0-.9.4-.9.9v10.8c0 .4.4.8.9.8zm30 0h4.3c.4 0 .8-.4.8-.9V45.4c0-.5-.4-.9-.9-.9H-.2c-.5 0-.9.4-.9.9v10.8c.1.4.5.8 1 .8z"/></svg>