<?xml version="1.0" encoding="utf-8"?>
<!-- Generator: Adobe Illustrator 19.0.0, SVG Export Plug-In . SVG Version: 6.00 Build 0)  -->
<svg version="1.1" id="Layer_1" xmlns="http://www.w3.org/2000/svg" xmlns:xlink="http://www.w3.org/1999/xlink" x="0px" y="0px"
	 height="100" width="100" viewBox="0 0 100 100" style="enable-background:new 0 0 100 100;" xml:space="preserve">
<style type="text/css">
	.st0{fill:#B58D2E;}
	.st1{fill:#B68D2E;}
	.st2{fill:#F7C750;}
	.st3{fill:#FFFFFF;stroke:#1A1C2D;stroke-width:3;stroke-miterlimit:10;}
	.st4{fill:#FFFFFF;stroke:#2E324C;stroke-width:5;stroke-miterlimit:10;}
</style>
<path id="XMLID_7_" class="st0" d="M71.6,50.5H58.1c-11,0-20,9-20,20v26.7h53.5V70.5C91.6,59.4,82.7,50.5,71.6,50.5z"/>
<circle id="XMLID_1_" class="st1" cx="64.9" cy="23.1" r="21.8"/>
<circle id="XMLID_11_" class="st2" cx="66.2" cy="23.6" r="21.8"/>
<path id="XMLID_2_" class="st2" d="M73.8,51.5H60.3c-11,0-20,9-20,20v26.7h53.5V71.5C93.8,60.5,84.8,51.5,73.8,51.5z"/>
<path id="XMLID_5_" class="st2" d="M72.7,51.5H59.2c-11,0-20,9-20,20v26.7h53.5V71.5C92.7,60.5,83.8,51.5,72.7,51.5z"/>
<path id="XMLID_6_" class="st3" d="M52.6,38.7c0.5-0.3,1.1-0.3,1.6-0.2c0.3,0.1,0.5,0.2,0.7,0.4c0.7,0.5,1,1.4,0.8,2.3L42.4,89.8
	c-0.2,0.8-0.9,1.4-1.8,1.6c-0.2,0-0.6,0-0.8,0c-0.5-0.1-1-0.5-1.3-1l-7.3-12.9L20.9,90.3c-0.7,0.9-2.1,1.1-3,0.4l-5.1-4
	c-0.9-0.7-1.1-2.1-0.4-3L23.2,70l-12.4-3.4c-0.8-0.2-1.4-0.9-1.6-1.8c-0.1-0.8,0.3-1.7,1.1-2.1L52.6,38.7z"/>
<path id="XMLID_4_" class="st4" d="M50.9,36c0.5-0.3,1.1-0.3,1.6-0.2c0.3,0.1,0.5,0.2,0.7,0.4c0.7,0.5,1,1.4,0.8,2.3L40.7,87.1
	c-0.2,0.8-0.9,1.4-1.8,1.6c-0.2,0-0.6,0-0.8,0c-0.5-0.1-1-0.5-1.3-1l-7.3-12.9L19.2,87.6c-0.7,0.9-2.1,1.1-3,0.4l-5.1-4
	c-0.9-0.7-1.1-2.1-0.4-3l10.7-13.6L9.1,64c-0.8-0.2-1.4-0.9-1.6-1.8c-0.1-0.8,0.3-1.7,1.1-2.1L50.9,36z"/>
</svg>
