<svg xmlns="http://www.w3.org/2000/svg" style="enable-background:new 0 0 100 100;" width="100" height="100"><path d="M69 74.5H11.3c-1.4 0-2.5-1-2.5-2.5V14.3c0-1.4 1-2.5 2.5-2.5H69c1.4 0 2.5 1 2.5 2.5V72c0 1.4-1 2.5-2.5 2.5z" fill="#22753b"/><path d="M71.7 75.8H14c-1.4 0-2.5-1-2.5-2.5V15.5c0-1.4 1-2.5 2.5-2.5h57.7c1.4 0 2.5 1 2.5 2.5v57.7c.1 1.4-1 2.6-2.4 2.6z" fill="#25af4b"/><path d="M63.7 32.5c0 .7-.3 1.4-.8 1.8l-23 23.2c-.5.5-1.2.8-1.8.8s-1.4-.3-1.8-.8L22.7 44c-.5-.5-.8-1.2-.8-1.8 0-.7.3-1.4.8-1.8l3.7-3.7c.5-.5 1.2-.8 1.8-.8s1.4.3 1.8.8l8 8L55.6 27c.5-.5 1.2-.8 1.8-.8.7 0 1.4.3 1.8.8l3.7 3.7c.5.5.8 1 .8 1.8z" fill="#fff"/><path d="M15.6 58c.3-1 .8-1.8 1.5-2.5 1.8-1.8 4.4-2 5.8-.7.8.8 1 2.2.7 3.5l-2.3 8.2 23.4-22.7c2-1.8 4.5-2 6-.6s1 4.2-1 6l-15 14.4.6.6 2.5-2.4c2-1.8 4.5-2 6-.6s1 4.2-1 6l-2.3 2.3.6.6 1.7-1.6c1.6-1.6 4-1.8 5-.6 1.2 1.3.8 3.6-.8 5.2l-1.6 1.5.6.6c1.4-1.3 3.3-1.6 4.4-.5s.6 3.2-.8 4.5L44 84.6c-1.7 1.6-3.5 3-5.5 4.4L27 96.5c-1 .6-2 .5-2.5 0L10.4 82c-.8-.8-1-2-.7-3.4l6-20.7z" fill="#aa7f50"/><path d="M15.7 60c.3-1 .8-1.8 1.5-2.5 1.8-1.8 4.4-2 5.8-.7.8.8 1 2.2.7 3.5l-2.3 8.2 23.4-22.7c2-1.8 4.5-2 6-.6s1 4.2-1 6l-15 14.4.6.6 2.5-2.4c2-1.8 4.5-2 6-.6s1 4.2-1 6l-2.3 2.3.6.6 1.7-1.6c1.6-1.6 4-1.8 5-.6 1.2 1.3.8 3.6-.8 5.2l-1.6 1.5.6.6c1.4-1.3 3.3-1.6 4.4-.5s.6 3.2-.8 4.5L44 86.7c-1.7 1.6-3.5 3-5.5 4.4L27 98.6c-1 .6-2 .5-2.5 0L10.6 84c-.8-.8-1-2-.7-3.4L15.7 60z" fill="#d6a972"/></svg>