<svg xmlns="http://www.w3.org/2000/svg" height="100" width="100" viewBox="-199 201 100 100"><style><![CDATA[.Z{fill:#9AC3DD}.a{fill:#D8E143}.b{fill:#E5AF59}.c{fill:#D16850}.d{fill:#342F75}.e{fill:#81C562}]]></style><path d="M-194.3 217.5h91.8v80h-91.8z" fill="#fff"/><g opacity=".63"><path d="M-109 271.5v7.5c0 1.3-1 2.4-2.4 2.4h-8.8c-1.3 0-2.4-1-2.4-2.4v-7.5c0-1.3 1-2.4 2.4-2.4h8.8c1.3 0 2.4 1 2.4 2.4zm0-15.3v7.5c0 1.3-1 2.4-2.4 2.4h-8.8c-1.3 0-2.4-1-2.4-2.4v-7.5c0-1.3 1-2.4 2.4-2.4h8.8c1.3 0 2.4 1 2.4 2.4zm0-14.7v7.5c0 1.3-1 2.4-2.4 2.4h-8.8c-1.3 0-2.4-1-2.4-2.4v-7.5c0-1.3 1-2.4 2.4-2.4h8.8c1.3 0 2.4 1 2.4 2.4z" class="Z"/><path d="M-109 226.5v7.5c0 1.3-1 2.4-2.4 2.4h-8.8c-1.3 0-2.4-1-2.4-2.4v-7.5c0-1.3 1-2.4 2.4-2.4h8.8c1.3 0 2.4 1 2.4 2.4z" class="a"/><path d="M-125.8 271.5v7.5c0 1.3-1 2.4-2.4 2.4h-8.8c-1.3 0-2.4-1-2.4-2.4v-7.5c0-1.3 1-2.4 2.4-2.4h8.8c1.3 0 2.4 1 2.4 2.4z" class="b"/><path d="M-125.8 256.2v7.5c0 1.3-1 2.4-2.4 2.4h-8.8c-1.3 0-2.4-1-2.4-2.4v-7.5c0-1.3 1-2.4 2.4-2.4h8.8c1.3 0 2.4 1 2.4 2.4zm0-14.7v7.5c0 1.3-1 2.4-2.4 2.4h-8.8c-1.3 0-2.4-1-2.4-2.4v-7.5c0-1.3 1-2.4 2.4-2.4h8.8c1.3 0 2.4 1 2.4 2.4zm0-15v7.5c0 1.3-1 2.4-2.4 2.4h-8.8c-1.3 0-2.4-1-2.4-2.4v-7.5c0-1.3 1-2.4 2.4-2.4h8.8c1.3 0 2.4 1 2.4 2.4zm-16.5 45v7.5c0 1.3-1 2.4-2.4 2.4h-8.8c-1.3 0-2.4-1-2.4-2.4v-7.5c0-1.3 1-2.4 2.4-2.4h8.8c1.3 0 2.4 1 2.4 2.4zm0-15.3v7.5c0 1.3-1 2.4-2.4 2.4h-8.8c-1.3 0-2.4-1-2.4-2.4v-7.5c0-1.3 1-2.4 2.4-2.4h8.8c1.3 0 2.4 1 2.4 2.4z" class="Z"/><path d="M-142.3 241.5v7.5c0 1.3-1 2.4-2.4 2.4h-8.8c-1.3 0-2.4-1-2.4-2.4v-7.5c0-1.3 1-2.4 2.4-2.4h8.8c1.3 0 2.4 1 2.4 2.4z" class="c"/><path d="M-142.3 226.5v7.5c0 1.3-1 2.4-2.4 2.4h-8.8c-1.3 0-2.4-1-2.4-2.4v-7.5c0-1.3 1-2.4 2.4-2.4h8.8c1.3 0 2.4 1 2.4 2.4zm-16.5 45v7.5c0 1.3-1 2.4-2.4 2.4h-8.8c-1.3 0-2.4-1-2.4-2.4v-7.5c0-1.3 1-2.4 2.4-2.4h8.8c1.3 0 2.4 1 2.4 2.4zm0-15.3v7.5c0 1.3-1 2.4-2.4 2.4h-8.8c-1.3 0-2.4-1-2.4-2.4v-7.5c0-1.3 1-2.4 2.4-2.4h8.8c1.3 0 2.4 1 2.4 2.4zm0-14.7v7.5c0 1.3-1 2.4-2.4 2.4h-8.8c-1.3 0-2.4-1-2.4-2.4v-7.5c0-1.3 1-2.4 2.4-2.4h8.8c1.3 0 2.4 1 2.4 2.4zm0-15v7.5c0 1.3-1 2.4-2.4 2.4h-8.8c-1.3 0-2.4-1-2.4-2.4v-7.5c0-1.3 1-2.4 2.4-2.4h8.8c1.3 0 2.4 1 2.4 2.4z" class="Z"/><path d="M-175.4 271.5v7.5c0 1.3-1 2.4-2.4 2.4h-8.8c-1.3 0-2.4-1-2.4-2.4v-7.5c0-1.3 1-2.4 2.4-2.4h8.8c1.3 0 2.4 1 2.4 2.4z" class="d"/><path d="M-175.4 256.2v7.5c0 1.3-1 2.4-2.4 2.4h-8.8c-1.3 0-2.4-1-2.4-2.4v-7.5c0-1.3 1-2.4 2.4-2.4h8.8c1.3 0 2.4 1 2.4 2.4zm0-14.7v7.5c0 1.3-1 2.4-2.4 2.4h-8.8c-1.3 0-2.4-1-2.4-2.4v-7.5c0-1.3 1-2.4 2.4-2.4h8.8c1.3 0 2.4 1 2.4 2.4z" class="Z"/><path d="M-175.4 226.5v7.5c0 1.3-1 2.4-2.4 2.4h-8.8c-1.3 0-2.4-1-2.4-2.4v-7.5c0-1.3 1-2.4 2.4-2.4h8.8c1.3 0 2.4 1 2.4 2.4z" class="e"/></g><path d="M-194.3 205.7h91.8v9.2h-91.8z" fill="#fff"/><path d="M-108 272.5v7.5c0 1.3-1 2.4-2.4 2.4h-8.8c-1.3 0-2.4-1-2.4-2.4v-7.5c0-1.3 1-2.4 2.4-2.4h8.8c1.3 0 2.4 1 2.4 2.4zm0-15.3v7.5c0 1.3-1 2.4-2.4 2.4h-8.8c-1.3 0-2.4-1-2.4-2.4v-7.5c0-1.3 1-2.4 2.4-2.4h8.8c1.3 0 2.4 1 2.4 2.4zm0-14.7v7.5c0 1.3-1 2.4-2.4 2.4h-8.8c-1.3 0-2.4-1-2.4-2.4v-7.5c0-1.3 1-2.4 2.4-2.4h8.8c1.3 0 2.4 1 2.4 2.4z" class="Z"/><path d="M-108 227.5v7.5c0 1.3-1 2.4-2.4 2.4h-8.8c-1.3 0-2.4-1-2.4-2.4v-7.5c0-1.3 1-2.4 2.4-2.4h8.8c1.3 0 2.4 1 2.4 2.4z" class="a"/><path d="M-124.8 272.5v7.5c0 1.3-1 2.4-2.4 2.4h-8.8c-1.3 0-2.4-1-2.4-2.4v-7.5c0-1.3 1-2.4 2.4-2.4h8.8c1.3 0 2.4 1 2.4 2.4z" class="b"/><path d="M-124.8 257.2v7.5c0 1.3-1 2.4-2.4 2.4h-8.8c-1.3 0-2.4-1-2.4-2.4v-7.5c0-1.3 1-2.4 2.4-2.4h8.8c1.3 0 2.4 1 2.4 2.4zm0-14.7v7.5c0 1.3-1 2.4-2.4 2.4h-8.8c-1.3 0-2.4-1-2.4-2.4v-7.5c0-1.3 1-2.4 2.4-2.4h8.8c1.3 0 2.4 1 2.4 2.4zm0-15v7.5c0 1.3-1 2.4-2.4 2.4h-8.8c-1.3 0-2.4-1-2.4-2.4v-7.5c0-1.3 1-2.4 2.4-2.4h8.8c1.3 0 2.4 1 2.4 2.4zm-16.5 45v7.5c0 1.3-1 2.4-2.4 2.4h-8.8c-1.3 0-2.4-1-2.4-2.4v-7.5c0-1.3 1-2.4 2.4-2.4h8.8c1.3 0 2.4 1 2.4 2.4zm0-15.3v7.5c0 1.3-1 2.4-2.4 2.4h-8.8c-1.3 0-2.4-1-2.4-2.4v-7.5c0-1.3 1-2.4 2.4-2.4h8.8c1.3 0 2.4 1 2.4 2.4z" class="Z"/><path d="M-141.3 242.5v7.5c0 1.3-1 2.4-2.4 2.4h-8.8c-1.3 0-2.4-1-2.4-2.4v-7.5c0-1.3 1-2.4 2.4-2.4h8.8c1.3 0 2.4 1 2.4 2.4z" class="c"/><path d="M-141.3 227.5v7.5c0 1.3-1 2.4-2.4 2.4h-8.8c-1.3 0-2.4-1-2.4-2.4v-7.5c0-1.3 1-2.4 2.4-2.4h8.8c1.3 0 2.4 1 2.4 2.4zm-16.5 45v7.5c0 1.3-1 2.4-2.4 2.4h-8.8c-1.3 0-2.4-1-2.4-2.4v-7.5c0-1.3 1-2.4 2.4-2.4h8.8c1.3 0 2.4 1 2.4 2.4zm0-15.3v7.5c0 1.3-1 2.4-2.4 2.4h-8.8c-1.3 0-2.4-1-2.4-2.4v-7.5c0-1.3 1-2.4 2.4-2.4h8.8c1.3 0 2.4 1 2.4 2.4zm0-14.7v7.5c0 1.3-1 2.4-2.4 2.4h-8.8c-1.3 0-2.4-1-2.4-2.4v-7.5c0-1.3 1-2.4 2.4-2.4h8.8c1.3 0 2.4 1 2.4 2.4zm0-15v7.5c0 1.3-1 2.4-2.4 2.4h-8.8c-1.3 0-2.4-1-2.4-2.4v-7.5c0-1.3 1-2.4 2.4-2.4h8.8c1.3 0 2.4 1 2.4 2.4z" class="Z"/><path d="M-174.4 272.5v7.5c0 1.3-1 2.4-2.4 2.4h-8.8c-1.3 0-2.4-1-2.4-2.4v-7.5c0-1.3 1-2.4 2.4-2.4h8.8c1.3 0 2.4 1 2.4 2.4z" class="d"/><path d="M-174.4 257.2v7.5c0 1.3-1 2.4-2.4 2.4h-8.8c-1.3 0-2.4-1-2.4-2.4v-7.5c0-1.3 1-2.4 2.4-2.4h8.8c1.3 0 2.4 1 2.4 2.4zm0-14.7v7.5c0 1.3-1 2.4-2.4 2.4h-8.8c-1.3 0-2.4-1-2.4-2.4v-7.5c0-1.3 1-2.4 2.4-2.4h8.8c1.3 0 2.4 1 2.4 2.4z" class="Z"/><path d="M-174.4 227.5v7.5c0 1.3-1 2.4-2.4 2.4h-8.8c-1.3 0-2.4-1-2.4-2.4v-7.5c0-1.3 1-2.4 2.4-2.4h8.8c1.3 0 2.4 1 2.4 2.4z" class="e"/><path d="M-108 272.5v7.5c0 1.3-1 2.4-2.4 2.4h-8.8c-1.3 0-2.4-1-2.4-2.4v-7.5c0-1.3 1-2.4 2.4-2.4h8.8c1.3 0 2.4 1 2.4 2.4zm0-15.3v7.5c0 1.3-1 2.4-2.4 2.4h-8.8c-1.3 0-2.4-1-2.4-2.4v-7.5c0-1.3 1-2.4 2.4-2.4h8.8c1.3 0 2.4 1 2.4 2.4zm0-14.7v7.5c0 1.3-1 2.4-2.4 2.4h-8.8c-1.3 0-2.4-1-2.4-2.4v-7.5c0-1.3 1-2.4 2.4-2.4h8.8c1.3 0 2.4 1 2.4 2.4z" class="Z"/><path d="M-108 227.5v7.5c0 1.3-1 2.4-2.4 2.4h-8.8c-1.3 0-2.4-1-2.4-2.4v-7.5c0-1.3 1-2.4 2.4-2.4h8.8c1.3 0 2.4 1 2.4 2.4z" class="a"/><path d="M-124.8 272.5v7.5c0 1.3-1 2.4-2.4 2.4h-8.8c-1.3 0-2.4-1-2.4-2.4v-7.5c0-1.3 1-2.4 2.4-2.4h8.8c1.3 0 2.4 1 2.4 2.4z" class="b"/><path d="M-124.8 257.2v7.5c0 1.3-1 2.4-2.4 2.4h-8.8c-1.3 0-2.4-1-2.4-2.4v-7.5c0-1.3 1-2.4 2.4-2.4h8.8c1.3 0 2.4 1 2.4 2.4zm0-14.7v7.5c0 1.3-1 2.4-2.4 2.4h-8.8c-1.3 0-2.4-1-2.4-2.4v-7.5c0-1.3 1-2.4 2.4-2.4h8.8c1.3 0 2.4 1 2.4 2.4zm0-15v7.5c0 1.3-1 2.4-2.4 2.4h-8.8c-1.3 0-2.4-1-2.4-2.4v-7.5c0-1.3 1-2.4 2.4-2.4h8.8c1.3 0 2.4 1 2.4 2.4zm-16.5 45v7.5c0 1.3-1 2.4-2.4 2.4h-8.8c-1.3 0-2.4-1-2.4-2.4v-7.5c0-1.3 1-2.4 2.4-2.4h8.8c1.3 0 2.4 1 2.4 2.4zm0-15.3v7.5c0 1.3-1 2.4-2.4 2.4h-8.8c-1.3 0-2.4-1-2.4-2.4v-7.5c0-1.3 1-2.4 2.4-2.4h8.8c1.3 0 2.4 1 2.4 2.4z" class="Z"/><path d="M-141.3 242.5v7.5c0 1.3-1 2.4-2.4 2.4h-8.8c-1.3 0-2.4-1-2.4-2.4v-7.5c0-1.3 1-2.4 2.4-2.4h8.8c1.3 0 2.4 1 2.4 2.4z" class="c"/><path d="M-141.3 227.5v7.5c0 1.3-1 2.4-2.4 2.4h-8.8c-1.3 0-2.4-1-2.4-2.4v-7.5c0-1.3 1-2.4 2.4-2.4h8.8c1.3 0 2.4 1 2.4 2.4zm-16.5 45v7.5c0 1.3-1 2.4-2.4 2.4h-8.8c-1.3 0-2.4-1-2.4-2.4v-7.5c0-1.3 1-2.4 2.4-2.4h8.8c1.3 0 2.4 1 2.4 2.4zm0-15.3v7.5c0 1.3-1 2.4-2.4 2.4h-8.8c-1.3 0-2.4-1-2.4-2.4v-7.5c0-1.3 1-2.4 2.4-2.4h8.8c1.3 0 2.4 1 2.4 2.4zm0-14.7v7.5c0 1.3-1 2.4-2.4 2.4h-8.8c-1.3 0-2.4-1-2.4-2.4v-7.5c0-1.3 1-2.4 2.4-2.4h8.8c1.3 0 2.4 1 2.4 2.4zm0-15v7.5c0 1.3-1 2.4-2.4 2.4h-8.8c-1.3 0-2.4-1-2.4-2.4v-7.5c0-1.3 1-2.4 2.4-2.4h8.8c1.3 0 2.4 1 2.4 2.4z" class="Z"/><path d="M-174.4 272.5v7.5c0 1.3-1 2.4-2.4 2.4h-8.8c-1.3 0-2.4-1-2.4-2.4v-7.5c0-1.3 1-2.4 2.4-2.4h8.8c1.3 0 2.4 1 2.4 2.4z" class="d"/><path d="M-174.4 257.2v7.5c0 1.3-1 2.4-2.4 2.4h-8.8c-1.3 0-2.4-1-2.4-2.4v-7.5c0-1.3 1-2.4 2.4-2.4h8.8c1.3 0 2.4 1 2.4 2.4zm0-14.7v7.5c0 1.3-1 2.4-2.4 2.4h-8.8c-1.3 0-2.4-1-2.4-2.4v-7.5c0-1.3 1-2.4 2.4-2.4h8.8c1.3 0 2.4 1 2.4 2.4z" class="Z"/><path d="M-174.4 227.5v7.5c0 1.3-1 2.4-2.4 2.4h-8.8c-1.3 0-2.4-1-2.4-2.4v-7.5c0-1.3 1-2.4 2.4-2.4h8.8c1.3 0 2.4 1 2.4 2.4z" class="e"/><g fill="#F1E574"><path d="M-187.3 288.8c-1 1-1 2.6 0 3.6l4.5 4.4c1 1 2.6 1 3.6 0l14.6-15c1-1 1-2.6 0-3.6l-2.5 2.5c-1 1-2.6 1-3.6 0l-.3-.3c-1-1-1-2.6 0-3.6l2.5-2.5-.5-.4c-1-1-2.6-1-3.6 0l-14.7 15z"/><path d="M-171.2 277c-1 1-1 2.8 0 4l.3.3c1 1 2.8 1 3.8 0l2.6-2.7-4.2-4.2-2.5 2.7z"/></g><g fill="#25363F"><path d="M-161.3 266.7l-7.4 7.6 4 4 7.2-7.7c-1.4-1.2-2.7-2.6-4-4z"/><path d="M-142.6 228.2c13.2 0 23.8 10.7 23.8 24s-10.7 23.8-23.8 23.8c-5.6 0-10.8-2-15-5.2l.2-.2c1-1 1-2.6 0-3.6l-.3-.3c-1-1-2.6-1-3.6 0l-.1.2c-3.2-4-5-9-5-14.7-.1-13.2 10.6-24 23.7-24zm0 43.5c10.8 0 19.6-8.8 19.6-19.6s-8.8-19.6-19.6-19.6-19.6 8.8-19.6 19.6c.1 10.8 9 19.6 19.6 19.6z"/><path d="M-161.2 266.5l-.1.2c1 1.5 2.5 2.8 4 4l.2-.2c1-1 1-2.6 0-3.6l-.3-.3c-1-1-2.7-1-3.7-.1z"/></g><path d="M-142.6 232.5c-10.8 0-19.6 8.8-19.6 19.6s8.8 19.6 19.6 19.6S-123 263-123 252s-8.8-19.6-19.6-19.6z" opacity=".47" class="Z"/><path d="M-99 203.4v95.2c0 1.3-1 2.4-2.4 2.4h-95.2c-1.3 0-2.4-1-2.4-2.4v-95.2c0-1.3 1-2.4 2.4-2.4h95.2c1.3 0 2.4 1 2.4 2.4zm-5 88.7v-70.3c0-1.3-1-2.4-2.4-2.4H-190c-1.3 0-2.4 1-2.4 2.4V292c0 1.3 1 2.4 2.4 2.4h83.5c1.3 0 2.4-1 2.4-2.4zm0-81.2v-1.6c0-1.3-1-2.4-2.4-2.4H-190c-1.3 0-2.4 1-2.4 2.4v1.6c0 1.3 1 2.4 2.4 2.4h83.5c1.3 0 2.4-1 2.4-2.4z" fill="#708891"/><circle cx="-188.7" cy="210.2" r="1.6"/><circle cx="-185.2" cy="210.2" r="1.6"/><circle cx="-181.7" cy="210.2" r="1.6"/><circle cx="-178.2" cy="210.2" r="1.6"/><circle cx="-174.4" cy="210.2" r="1.6"/><circle cx="-170.9" cy="210.2" r="1.6"/><circle cx="-167.4" cy="210.2" r="1.6"/><circle cx="-163.9" cy="210.2" r="1.6"/></svg>