<svg xmlns="http://www.w3.org/2000/svg" viewBox="0 0 500 500" width="100" height="100"><path d="M479,195H91c-6.6,0-12-5.4-12-12v-22c0-6.6,5.4-12,12-12h388c6.6,0,12,5.4,12,12v22 C491,189.6,485.6,195,479,195z" fill="#202A30"/><path d="M212.4 469c0 14-11.3 25.2-25.2 25.2S162 482.8 162 469s11.3-25.2 25.2-25.2 25.2 11.3 25.2 25.2zm180.8 0c0 14-11.3 25.2-25.2 25.2s-25.2-11.3-25.2-25.2 11.3-25.2 25.2-25.2 25.2 11.3 25.2 25.2z" fill="#1E1F28"/><path d="M314.6,108.7h3c6.6,0,12,5.4,12,12V149h-15V108.7z" fill="#8E7F30"/><path d="M317.6 108.7h-3V55a12.04 12.04 0 0 1 12-12h55.5a12.04 12.04 0 0 1 12 12v94h-64.5v-28.3a12.04 12.04 0 0 0-12-12z" fill="#8C6527"/><g fill="#353447"><path d="M329.6 151c0 5-3 9.3-7.5 11-4.4-1.8-7.5-6-7.5-11v-2h15v2z"/><path d="M322 162.2c4.4-1.8 7.5-6 7.5-11v-2H394v2a12.04 12.04 0 0 1-12 12h-55.5c-1.6 0-3-.3-4.5-1z"/><path d="M382 163a12.04 12.04 0 0 0 12-12v-2h89a12.04 12.04 0 0 1 12 12v22a12.04 12.04 0 0 1-12 12H95c-.8 0-1.6-.1-2.3-.2-5.5-1-9.7-6-9.7-11.8v-22a12.04 12.04 0 0 1 12-12h65.4v2a12.04 12.04 0 0 0 12 12h65.6c3 0 5.5-1 7.6-2.7 2 1.7 4.7 2.7 7.5 2.7h64.5c1.6 0 3-.3 4.5-1 1.4.6 3 1 4.5 1H382z"/><path d="M314.6 151c0 5 3 9.3 7.5 11-1.4.6-3 1-4.5 1H253c-2.8 0-5.5-1-7.5-2.7 2.7-2.2 4.4-5.6 4.4-9.3v-2h64.6v2z"/></g><path d="M314.6 108.7V149H250v-40c1-.3 2-.4 3-.4h61.5z" fill="#8E7F30"/><g fill="#C9B52E"><path d="M250 109v40h-9v-28.3c0-5.6 3.8-10.3 9-11.6z"/><path d="M250 90V109c-5 1.4-9 6-9 11.6V149h-80.8V90a12.04 12.04 0 0 1 12-12h65.7a12.04 12.04 0 0 1 12 12z"/></g><g fill="#353447"><path d="M250 149v2a11.87 11.87 0 0 1-4.4 9.3c-2.7-2.2-4.5-5.6-4.5-9.3v-2h9z"/><path d="M241 151c0 3.8 1.7 7 4.5 9.3-2 1.7-4.7 2.7-7.6 2.7h-65.7a12.04 12.04 0 0 1-12-12v-2H241v2z"/></g><path d="M162 451.7l-1.7-16H421c4.5 2.7 9.2 15.6 6 19.8l-33.5-.5c-4.5-6.8-12.3-11.3-21-11.3-8.5 0-16 4.2-20.6 10.7l-141-2c-4.6-5.3-11.4-8.7-19-8.7-7.4 0-14 3-18.6 8.2l-11-.2z" fill="#A09F9F"/><path d="M483 195l-36.7 167.3-308 24L101.7 195H483zm-33.7 122.8v-.3c-.2-2.6-2.4-4.6-5-4.5l-298 17.7c-2.5.1-4.5 2.2-4.5 4.7v.3c.1 2.6 2.4 4.6 5 4.5l298-17.7c2.6-.1 4.5-2.2 4.5-4.7zm-1.6-27.4v-.3c-.2-2.6-2.4-4.6-5-4.5l-298 17.7c-2.5.1-4.5 2.2-4.5 4.7v.3c.2 2.6 2.4 4.6 5 4.5l298-17.7c2.6-.1 4.5-2.2 4.5-4.7zM446 262v-.3c-.1-2.6-2.4-4.6-5-4.5l-298 17.7c-2.5.1-4.5 2.3-4.5 4.7v.3c.2 2.6 2.4 4.6 5 4.5l298-17.7c2.5-.1 4.5-2.2 4.5-4.7zm-1.5-25.4v-.3c-.1-2.6-2.4-4.6-5-4.5l-298 17.7c-2.5.1-4.5 2.3-4.5 4.8v.3c.2 2.6 2.4 4.6 5 4.5l298-17.7c2.5-.2 4.5-2.3 4.5-4.8zm-1.7-28.5v-.3c-.1-2.6-2.4-4.6-5-4.5l-298 17.7c-2.5.1-4.5 2.3-4.5 4.8v.3c.2 2.6 2.4 4.6 5 4.5l298-17.7c2.6-.2 4.5-2.3 4.5-4.8z" fill="#F15822"/><path d="M449.3 317.5v.3c0 2.5-2 4.6-4.5 4.8l-298 17.7c-2.6.2-5-2-5-4.5v-.3c0-2.5 2-4.6 4.5-4.7l298-17.7c2.6-.2 5 1.8 5 4.4zm-1.6-27.4v.3c0 2.5-2 4.6-4.5 4.8l-298 17.7c-2.6.1-5-2-5-4.5v-.3c0-2.5 2-4.6 4.5-4.7l298-17.7c2.6-.2 4.8 1.8 5 4.4zm-1.7-28.5v.3c0 2.5-2 4.6-4.5 4.7l-298 17.7a4.66 4.66 0 0 1-5-4.501v-.3c0-2.5 2-4.6 4.5-4.7L441 257c2.6-.1 5 2 5 4.5zm-1.5-25.4v.3c0 2.5-2 4.6-4.5 4.7L142 259c-2.6.2-5-2-5-4.5v-.3c0-2.5 2-4.6 4.5-4.8l298-17.7c2.6 0 4.8 2 5 4.6zm-1.7-28.5v.3c0 2.5-2 4.6-4.5 4.7l-298 17.7c-2.6.2-5-1.8-5-4.5v-.3c0-2.5 2-4.6 4.5-4.8l298-17.7c2.6 0 4.8 2 5 4.6z" fill="#FFD833"/><g fill="#353447"><path d="M393.4 455c2.6 4 4.2 8.8 4.2 14 0 14-11.3 25.2-25.2 25.2s-25.2-11.3-25.2-25.2c0-5.4 1.7-10.4 4.6-14.5l41.6.6z"/><path d="M393.4 455l-41.7-.6c4.6-6.5 12-10.7 20.6-10.7 8.8 0 16.6 4.5 21 11.3z"/></g><path d="M360.2 369l25 66.7h-13L348 370z" fill="#A09F9F"/><g fill="#353447"><path d="M210.6 452.4c3.8 4.4 6.2 10.2 6.2 16.5 0 14-11.3 25.2-25.2 25.2s-25.2-11.3-25.2-25.2c0-6.6 2.5-12.6 6.7-17l37.5.6z"/><path d="M210.6 452.4L173 452c4.6-5 11.2-8.2 18.6-8.2 7.6 0 14.4 3.3 19 8.7z"/></g><path d="M166.4 384l9.6 51.6h-15.7l-6.7-50.6 12.8-1z" fill="#A09F9F"/><path d="M101.7 195l36.7 191.3h-9L92.7 194.8c.7.1 1.5.2 2.3.2h6.7z" fill="#A53E23"/><path d="M98.3 68.3l17.3 80.7H95L83 85c-5-3.8-25.3 0-25.3 0V70.3c0-.6 0-1.3-.1-2h.1c0-.1 32-5.2 40.6-.1z" fill="#A09F9F"/><path d="M57.7 85v.5a12.04 12.04 0 0 1-12 12H12a12.04 12.04 0 0 1-12-12V70.3a12.04 12.04 0 0 1 12-12h33.7c6 0 11 4.4 12 10 .1.6.1 1.3.1 2V85z" fill="#353447"/><path d="M101.7 195l36.6 191.3M92.7 195l36.6 191.3m9 0l308-24m-317 24h9" fill="none" stroke="#F15822" stroke-miterlimit="10"/></svg>