<svg xmlns="http://www.w3.org/2000/svg" width="330" height="70" viewBox="77.6 348.9 459.1 96.1"><style><![CDATA[.J{fill:#fff}]]></style><path class="J" d="M122 444.4c-4 0-8-.8-11.4-2.3-3.6-1.6-6.7-3.7-9.4-6.3-2.7-2.7-4.8-5.8-6.3-9.4-1.6-3.6-2.3-7.4-2.3-11.5a29.88 29.88 0 0 1 2.3-11.5c1.6-3.6 3.7-6.7 6.3-9.4 2.7-2.7 5.8-4.8 9.4-6.3 3.6-1.6 7.4-2.3 11.4-2.3a29.51 29.51 0 0 1 11.5 2.3c3.6 1.6 6.7 3.7 9.4 6.3 2.7 2.7 4.8 5.8 6.3 9.4 1.6 3.6 2.3 7.4 2.3 11.5a29.51 29.51 0 0 1-2.3 11.5c-1.6 3.6-3.7 6.7-6.3 9.4-2.7 2.7-5.8 4.8-9.4 6.3a29.51 29.51 0 0 1-11.5 2.3zm0-49c-2.6 0-5 .5-7.3 1.6s-4.2 2.5-6 4.2c-1.7 1.8-3 3.8-4 6.2s-1.5 4.8-1.5 7.4.5 5 1.5 7.4 2.3 4.4 4 6.2a19.5 19.5 0 0 0 5.9 4.3c2.2 1 4.7 1.6 7.3 1.6s5-.5 7.3-1.6a19.5 19.5 0 0 0 5.9-4.3c1.7-1.8 3-3.8 4-6.2 1-2.3 1.5-4.8 1.5-7.4a19.19 19.19 0 0 0-1.5-7.4c-1-2.4-2.3-4.4-4-6.2s-3.6-3.2-6-4.2c-2.3-1-4.7-1.6-7.3-1.6zm47.8 47.8h-6a2.19 2.19 0 0 1-2.4-2.4v-52a2.19 2.19 0 0 1 2.4-2.4H187c3 0 5.6.5 8 1.4 2.4 1 4.4 2.4 6 4 1 1 1.7 1.8 2.3 3 .7 1 1.2 2.2 1.7 3.3 1 2.4 1.4 5 1.4 8 0 4.4-1 8.2-3.2 11.3-1.7 2.5-3.8 4.5-6.5 6-.6.3-1 .7-1 1.3-.2.5 0 1 .4 1.6l5.5 7.3 5.4 7.4c.4.6.5 1 .3 1.7s-.6 1-1.3 1h-8c-.7 0-1.4-.2-2-.5-.7-.4-1.3-.8-1.7-1.3l-5.2-7-5-7.2c-.4-.6-1-1-1.7-1.4s-1.4-.5-2-.5h-6a2.19 2.19 0 0 0-2.4 2.4V441a2.19 2.19 0 0 1-.7 1.7c-.2.3-.8.5-1.4.5zm4.7-27.7H187c1 0 2-.2 3-.6s2-1 3-1.8a9.27 9.27 0 0 0 2-3c.5-1 .8-2.5.8-4.2 0-1-.1-2-.3-3-.1-.6-.3-1-.5-1.7-.2-.5-.4-1-.7-1.6-.6-1-1.5-2-2.6-2.6-1.2-.7-2.7-1-4.6-1h-12.6a2.19 2.19 0 0 0-2.4 2.4V413a2.19 2.19 0 0 0 .7 1.7c.5.5 1 .8 1.7.8zm45 27.7a2.19 2.19 0 0 1-1.7-.7c-.4-.5-.7-1-.7-1.7v-52a2.19 2.19 0 0 1 .7-1.7c.4-.5 1-.7 1.7-.7h20c8 0 14.8 2.4 20 7.2 2.8 2.6 5 5.7 6.3 9.2 1.5 3.8 2.2 7.8 2.2 12 0 2.3-.2 4.4-.5 6.4-.4 2-1 4-1.6 5.7-1.3 3.6-3.4 6.7-6.3 9.3-2.6 2.4-5.6 4-9 5.3-3.4 1.2-7 1.8-11 1.8l-20.3-.1zm11-9.6h9.3c2 0 4-.2 6-.7 2-.5 4-1.4 5.6-2.8 1.7-1.3 3-3.2 4.2-5.7 1-2.4 1.6-5.6 1.6-9.6 0-4-.5-7.2-1.6-9.6-1-2.5-2.5-4.4-4.2-5.7s-3.6-2.3-5.7-2.7c-2-.5-4-.7-6-.7h-9.3a2.19 2.19 0 0 0-1.7.7c-.4.5-.7 1-.7 1.7v32.7a2.19 2.19 0 0 0 .7 1.7c.6.4 1 .7 1.8.7zm56.4-35.3v9.4a2.19 2.19 0 0 0 2.4 2.4h22.7a2.19 2.19 0 0 1 2.4 2.4v5a2.19 2.19 0 0 1-2.4 2.4h-22.7c-.7 0-1.2.2-1.7.7a2.19 2.19 0 0 0-.7 1.7v8.6a2.19 2.19 0 0 0 2.4 2.4h26.2a2.19 2.19 0 0 1 2.4 2.4v5a2.19 2.19 0 0 1-2.4 2.4h-37a2.19 2.19 0 0 1-2.4-2.4v-52a2.19 2.19 0 0 1 2.4-2.4h37a2.19 2.19 0 0 1 2.4 2.4v4.8a2.19 2.19 0 0 1-2.4 2.401H289a2.19 2.19 0 0 0-1.7.7 2.34 2.34 0 0 0-.7 1.7zm48.2 45h-6a2.19 2.19 0 0 1-2.4-2.4v-52a2.19 2.19 0 0 1 2.4-2.4h23.5c3 0 5.6.5 8 1.4 2.4 1 4.4 2.4 6 4 1 1 1.7 1.8 2.3 3 .7 1 1.2 2.2 1.7 3.3 1 2.4 1.4 5 1.4 8 0 4.4-1 8.2-3.2 11.3-1.7 2.5-3.8 4.5-6.5 6-.6.3-1 .7-1 1.3-.2.5 0 1 .4 1.6l5.5 7.3 5.4 7.4c.4.6.5 1 .3 1.7s-.6 1-1.3 1h-8c-.7 0-1.4-.2-2-.5-.7-.4-1.3-.8-1.7-1.3l-5.2-7-5-7.2c-.4-.6-1-1-1.7-1.4s-1.4-.5-2-.5h-6a2.19 2.19 0 0 0-2.4 2.4v13.3a2.19 2.19 0 0 1-.7 1.7c-.2.3-.8.5-1.5.5zm4.8-27.7h12.6c1 0 2-.2 3-.6s2-1 3-1.8a9.27 9.27 0 0 0 2-3c.5-1 .8-2.5.8-4.2 0-1-.1-2-.3-3-.1-.6-.3-1-.5-1.7-.2-.5-.4-1-.7-1.6-.6-1-1.5-2-2.6-2.6-1.2-.7-2.7-1-4.6-1h-12.6a2.19 2.19 0 0 0-2.4 2.4V413a2.19 2.19 0 0 0 .7 1.7c.4.5 1 .8 1.7.8zm41.6 25.7l27-54c.3-.6.8-1 1.6-1 .7 0 1.2.3 1.6 1l27 54c.3.6.3 1 .1 1.5s-.7.6-1.4.6H430c-.7 0-1.3-.2-2-.6s-1-1-1.4-1.6l-2.3-4.7c-.3-.6-.8-1-1.4-1.5s-1.3-.6-2-.6h-22c-.7 0-1.3.2-2 .6s-1 1-1.4 1.6l-2.3 4.6c-.3.6-.8 1-1.4 1.6-.6.4-1.3.6-2 .6h-7c-.7 0-1-.2-1.4-.6-.2-.4-.2-1 .1-1.5zM404 425h11.5c.7 0 1-.2 1.4-.7.2-.4.2-1 0-1.5l-6-12.8c-.3-.6-.6-1-1-1s-.8.3-1 1l-6 12.8c-.3.6-.3 1 0 1.6.1.3.6.6 1.3.6zm83.4 11v4.8a2.19 2.19 0 0 1-2.4 2.4H449a2.19 2.19 0 0 1-2.4-2.4v-52a2.19 2.19 0 0 1 2.4-2.4h6a2.19 2.19 0 0 1 2.4 2.4v42.5a2.19 2.19 0 0 0 2.4 2.4H485a2.19 2.19 0 0 1 1.7.7c.5.4.7 1 .7 1.7zm49.2 0v4.8a2.19 2.19 0 0 1-2.4 2.4H498a2.19 2.19 0 0 1-2.4-2.4v-52a2.19 2.19 0 0 1 2.4-2.4h6a2.19 2.19 0 0 1 2.4 2.4v42.5a2.19 2.19 0 0 0 2.4 2.4h25.3a2.19 2.19 0 0 1 1.7.7c.5.4.7 1 .7 1.7zM97 392.6h-.4c-.7-.1-1.2-.6-1.4-1.3-.4-1.2-1.5-3.4-2.4-5.3-2.3 2-6 3.3-10 1.2-4.5-2.3-6.4-6.8-4.8-11.3 1.5-4.3 5.7-7 10-6.5 0-.4-.1-.8-.1-1 0-.5-.1-1-.1-1.6-.3-4 1-9.7 5.5-13.2 7.8-6 14.7-5.2 18.4-2.4 1.8 1.4 3 3.2 3.5 5.2 2-1 4-1 6-.7 3 .8 5.8 4 6 7 .3 4-1.7 7.3-5 8.7-1.6.7-3.4.8-5 .4-.1.8-.6 1.5-1.4 1.7a1.96 1.96 0 0 1-2.4-1.3c0-.1-1-3-1.2-4-.2-1 .2-1.8 1-2.2s1.8-.2 2.4.5c1.2 1.5 3.4 2 5.2 1.3s2.8-2.5 2.6-5c-.1-1.2-1.5-3-3-3.4-1.8-.4-4.2 0-5.3 2.7-.1.2-.2.5-.3.7-.4 1-1.5 1.4-2.5 1-1-.4-1.5-1.4-1.2-2.4.1-.3.2-.5.3-.8.8-2.5.1-5-2-6.5-4-3-10-.6-13.7 2.3-3.6 2.8-4.2 7.5-4 10 0 .5.1 1 .1 1.5.2 2 .4 3.6-1 4.8-.8.7-1.8 1-3 .6-2.8-.6-5.2 1.6-6 4-.4 1-1.2 4.4 3 6.6 4 2 7-2 7-2.2.4-.6 1-1 1.7-.8a1.78 1.78 0 0 1 1.6 1l2.7 5.5c3.5-3 7.5-5 7.7-5.2 1-.5 2-.1 2.6.8s.1 2-.8 2.6c-.1 0-5.6 3-8.8 6.5-.2.4-.7.6-1.2.6zm.1-12.8c-.3 0-.6-.1-1-.3-.8-.5-1-1.5-.5-2.3.1-.2 2.6-4 10-7.3.8-.4 1.8 0 2.2.8s0 1.8-.8 2.2c-6.4 3-8.6 6-8.6 6-.3.5-1 .8-1.4.8z"/></svg>