<svg xmlns="http://www.w3.org/2000/svg" width="330" height="110" viewBox="0 0 459.2 118.2"><g fill="#fff"><path d="M44.3 117.6c-4 0-8-.8-11.4-2.3-3.6-1.6-6.7-3.7-9.4-6.3-2.7-2.7-4.8-5.8-6.3-9.4a29.51 29.51 0 0 1-2.3-11.5 29.88 29.88 0 0 1 2.3-11.5c1.5-3.6 3.7-6.7 6.3-9.4 2.7-2.7 5.8-4.8 9.4-6.3 3.6-1.6 7.4-2.3 11.4-2.3a29.51 29.51 0 0 1 11.5 2.3c3.6 1.6 6.7 3.7 9.4 6.3C68 70 70 73 71.5 76.6 73 80.2 73.8 84 73.8 88a29.51 29.51 0 0 1-2.3 11.5c-1.6 3.6-3.7 6.7-6.3 9.4-2.7 2.7-5.8 4.8-9.4 6.3a29.51 29.51 0 0 1-11.5 2.3zm.1-49c-2.6 0-5 .5-7.3 1.6s-4.2 2.5-6 4.2c-1.7 1.8-3 3.8-4 6.2s-1.5 4.8-1.5 7.4.5 5 1.5 7.4 2.3 4.4 4 6.2a19.5 19.5 0 0 0 5.9 4.3c2.2 1 4.7 1.6 7.3 1.6s5-.5 7.3-1.6a19.5 19.5 0 0 0 5.9-4.3c1.7-1.8 3-3.8 4-6.2 1-2.3 1.5-4.8 1.5-7.4a19.19 19.19 0 0 0-1.5-7.4c-1-2.4-2.3-4.4-4-6.2s-3.6-3.2-6-4.2c-2.3-1-4.7-1.6-7.3-1.6zM92 116.5h-6a2.19 2.19 0 0 1-1.7-.7 2.19 2.19 0 0 1-.7-1.7V62a2.19 2.19 0 0 1 .7-1.7 2.19 2.19 0 0 1 1.7-.7h23.5c3 0 5.6.5 8 1.4 2.4 1 4.4 2.4 6 4 1 1 1.7 1.8 2.3 3 .7 1 1.2 2.2 1.7 3.3 1 2.4 1.4 5 1.4 8 0 4.4-1 8.2-3.2 11.3-1.7 2.5-3.8 4.5-6.5 6-.6.3-1 .7-1 1.3-.2.5 0 1 .4 1.6l5.5 7.3 5.4 7.4c.4.6.5 1 .3 1.7s-.6 1-1.3 1h-8c-.7 0-1.4-.2-2-.5-.7-.4-1.3-.8-1.7-1.3l-5.2-7-5-7.2c-.4-.6-1-1-1.7-1.4s-1.4-.5-2-.5h-6a2.19 2.19 0 0 0-1.7.7 2.19 2.19 0 0 0-.7 1.7v13.3a2.19 2.19 0 0 1-.7 1.7c-.3.3-.8.5-1.5.5zm4.7-27.7h12.6c1 0 2-.2 3-.6s2-1 3-1.8 1.5-1.8 2-3c.5-1 .8-2.5.8-4.2 0-1-.1-2-.3-3-.1-.6-.3-1-.5-1.7-.2-.5-.4-1-.7-1.6-.6-1-1.5-2-2.6-2.6-1.2-.7-2.7-1-4.6-1H96.8a2.19 2.19 0 0 0-1.7.7 2.19 2.19 0 0 0-.7 1.7v14.7a2.19 2.19 0 0 0 .7 1.7c.5.5 1 .8 1.7.8zm45 27.7a2.19 2.19 0 0 1-1.7-.7c-.4-.5-.7-1-.7-1.7V62a2.19 2.19 0 0 1 .7-1.7c.4-.5 1-.7 1.7-.7h20c8 0 14.8 2.4 20 7.2 2.8 2.6 5 5.7 6.3 9.2 1.5 3.8 2.2 7.8 2.2 12 0 2.3-.2 4.4-.5 6.4-.4 2-1 4-1.6 5.7-1.3 3.6-3.4 6.7-6.3 9.3-2.6 2.4-5.6 4-9 5.3-3.4 1.2-7 1.8-11 1.8H142zm11-9.6h9.3a25.97 25.97 0 0 0 6.1-.7c2-.5 4-1.4 5.6-2.8 1.7-1.3 3-3.2 4.2-5.7 1-2.4 1.6-5.6 1.6-9.6 0-4-.5-7.2-1.6-9.6-1-2.5-2.5-4.4-4.2-5.7s-3.6-2.3-5.7-2.7a25.97 25.97 0 0 0-6.1-.7h-9.3a2.19 2.19 0 0 0-1.7.7c-.4.5-.7 1-.7 1.7v32.7a2.19 2.19 0 0 0 .7 1.7c.5.5 1 .7 1.8.7zm56.4-35.2V81a2.19 2.19 0 0 0 .7 1.7 2.19 2.19 0 0 0 1.7.7h22.7a2.19 2.19 0 0 1 1.7.7 2.19 2.19 0 0 1 .7 1.7v5a2.19 2.19 0 0 1-.7 1.7 2.19 2.19 0 0 1-1.7.7h-22.7a2.19 2.19 0 0 0-1.7.7 2.19 2.19 0 0 0-.7 1.7v8.6a2.19 2.19 0 0 0 .7 1.7 2.19 2.19 0 0 0 1.7.7h26.2a2.19 2.19 0 0 1 1.7.7 2.19 2.19 0 0 1 .7 1.7v5a2.19 2.19 0 0 1-.7 1.7 2.19 2.19 0 0 1-1.7.7h-37a2.19 2.19 0 0 1-1.7-.7 2.19 2.19 0 0 1-.7-1.7V62a2.19 2.19 0 0 1 .7-1.7 2.19 2.19 0 0 1 1.7-.7h37a2.19 2.19 0 0 1 1.7.7 2.19 2.19 0 0 1 .7 1.7v4.8a2.19 2.19 0 0 1-.7 1.7 2.19 2.19 0 0 1-1.7.7h-26.2a2.19 2.19 0 0 0-1.7.7c-.5.5-.7 1-.7 1.8zm48.2 44.8h-6a2.19 2.19 0 0 1-1.7-.7 2.19 2.19 0 0 1-.7-1.7v-52a2.19 2.19 0 0 1 .7-1.7 2.19 2.19 0 0 1 1.7-.7h23.5c3 0 5.6.5 8 1.4 2.4 1 4.4 2.4 6 4 1 1 1.7 1.8 2.3 3 .7 1 1.2 2.2 1.7 3.3 1 2.4 1.4 5 1.4 8 0 4.4-1 8.2-3.2 11.3-1.7 2.5-3.8 4.5-6.5 6-.6.3-1 .7-1 1.3-.2.5 0 1 .4 1.6l5.5 7.3 5.4 7.4c.4.6.5 1 .3 1.7s-.6 1-1.3 1h-8c-.7 0-1.4-.2-2-.5-.7-.4-1.3-.8-1.7-1.3l-5.2-7-5-7.2c-.4-.6-1-1-1.7-1.4s-1.4-.5-2-.5h-6a2.19 2.19 0 0 0-1.7.7 2.19 2.19 0 0 0-.7 1.7v13.3a2.19 2.19 0 0 1-.7 1.7c-.3.3-.8.5-1.5.5zm4.7-27.7h12.6c1 0 2-.2 3-.6s2-1 3-1.8 1.5-1.8 2-3c.5-1 .8-2.5.8-4.2 0-1-.1-2-.3-3-.1-.6-.3-1-.5-1.7-.2-.5-.4-1-.7-1.6-.6-1-1.5-2-2.6-2.6-1.2-.7-2.7-1-4.6-1H262a2.19 2.19 0 0 0-1.7.7 2.19 2.19 0 0 0-.7 1.7v14.7a2.19 2.19 0 0 0 .7 1.7c.5.5 1 .8 1.7.8zm40.6 27.3l27-54c.3-.6.8-1 1.6-1 .7 0 1.2.3 1.6 1l27 54c.3.6.3 1 .1 1.5s-.7.6-1.4.6h-7c-.7 0-1.3-.2-2-.6s-1-1-1.4-1.6l-2.3-4.7c-.3-.6-.8-1-1.4-1.5s-1.3-.6-2-.6h-22c-.7 0-1.3.2-2 .6s-1 1-1.4 1.6l-2.3 4.6c-.3.6-.8 1-1.4 1.6-.6.4-1.3.6-2 .6H304c-.7 0-1-.2-1.4-.6-.2-.4-.1-1 .1-1.5zm22.8-16.3H337c.7 0 1-.2 1.4-.7.2-.4.2-1 0-1.5l-6-12.8c-.3-.6-.6-1-1-1s-.8.3-1 1l-6 12.8c-.3.6-.3 1 0 1.6.2.4.6.6 1.3.6zm84.4 9.5v4.8a2.19 2.19 0 0 1-.7 1.7 2.19 2.19 0 0 1-1.7.7h-36.2a2.19 2.19 0 0 1-1.7-.7 2.19 2.19 0 0 1-.7-1.7v-52a2.19 2.19 0 0 1 .7-1.7 2.19 2.19 0 0 1 1.7-.7h6a2.19 2.19 0 0 1 1.7.7 2.19 2.19 0 0 1 .7 1.7v42.5a2.19 2.19 0 0 0 .7 1.7 2.19 2.19 0 0 0 1.7.7h25.3a2.19 2.19 0 0 1 1.7.7 2.19 2.19 0 0 1 .7 1.7zm49.3 0v4.8a2.19 2.19 0 0 1-.7 1.7 2.19 2.19 0 0 1-1.7.7h-36.2a2.19 2.19 0 0 1-1.7-.7 2.19 2.19 0 0 1-.7-1.7V62a2.19 2.19 0 0 1 .7-1.7 2.19 2.19 0 0 1 1.7-.7h6a2.19 2.19 0 0 1 1.7.7 2.19 2.19 0 0 1 .7 1.7v42.5a2.19 2.19 0 0 0 .7 1.7 2.19 2.19 0 0 0 1.7.7h25.3a2.19 2.19 0 0 1 1.7.7c.4.5.7 1 .7 1.7z"/><path d="M19.5 66H19c-.7-.1-1.2-.6-1.4-1.3-.4-1.2-1.5-3.4-2.4-5.3-2.3 2-6 3.3-10 1.2C1 58.2-1 53.7.6 49.2c1.5-4.3 5.7-7 10-6.5 0-.4-.1-.8-.1-1 0-.5-.1-1-.1-1.6-.3-4 1-9.7 5.5-13.2 7.8-6 14.7-5.2 18.4-2.4 1.8 1.4 3 3.2 3.5 5.2 2-1 4-1 6-.7 3 .8 5.8 4 6 7 .3 4-1.7 7.3-5 8.7-1.6.7-3.4.8-5 .4-.1.8-.6 1.5-1.4 1.7a1.96 1.96 0 0 1-2.4-1.3c0-.1-1-3-1.2-4-.2-1 .2-1.8 1-2.2s1.8-.2 2.4.5c1.2 1.5 3.4 2 5.2 1.3s2.8-2.5 2.6-5c-.1-1.2-1.5-3-3-3.4-1.8-.4-4.2 0-5.3 2.7-.1.2-.2.5-.3.7-.4 1-1.5 1.4-2.5 1-1-.4-1.5-1.4-1.2-2.4.1-.3.2-.5.3-.8.8-2.5.1-5-2-6.5-4-3-10-.6-13.7 2.3-3.6 2.8-4.2 7.5-4 10 0 .5.1 1 .1 1.5.2 2 .4 3.6-1 4.8-.8.7-1.8 1-3 .6-2.8-.6-5.2 1.6-6 4-.4 1-1.2 4.4 3 6.6 4 2 7-2 7-2.2.4-.6 1-1 1.7-.8a1.78 1.78 0 0 1 1.6 1l2.7 5.5c3.5-3 7.5-5 7.7-5.2 1-.5 2-.1 2.6.8s.1 2-.8 2.6c-.1 0-5.6 3-8.8 6.5-.1.3-.6.6-1.2.6zm.2-13c-.3 0-.6-.1-1-.3-.8-.5-1-1.5-.5-2.3.1-.2 2.6-4 10-7.3.8-.4 1.8 0 2.2.8s0 1.8-.8 2.2c-6.4 3-8.6 6-8.6 6-.4.5-1 .8-1.4.8z"/><path d="M139.7 4.3h3.5c.4 0 .7.1 1 .3s.4.4.5.7l3.8 13.4c.1.3.2.7.3 1s.2.8.2 1.2l.3-1.2.3-1L154 5.3c.1-.2.2-.5.5-.7.2-.2.5-.3 1-.3h1.2c.4 0 .7.1 1 .3s.4.4.5.7l4.4 13.4.6 2.2c.1-.4.1-.8.2-1.2s.2-.7.2-1L167 5.3c.1-.3.2-.5.5-.7.2-.2.5-.3 1-.3h3.3l-7 22.4H161l-5-15.3c-.1-.2-.1-.4-.2-.6s-.1-.5-.2-.7c-.1.3-.1.5-.2.7s-.1.4-.2.6l-5 15.3h-3.8l-7-22.4zm40.3 6.3c1 0 2 .2 2.8.5.8.3 1.6.8 2.2 1.4s1 1.4 1.4 2.3.5 2 .5 3v.7c0 .2-.1.3-.1.4-.1.1-.2.2-.3.2s-.3.1-.4.1h-9.8c.1 1.6.6 2.8 1.3 3.6.8.8 1.8 1 3 1 .6 0 1.2-.1 1.6-.2.5-.1.8-.3 1.2-.5.3-.2.6-.3 1-.5.3-.1.5-.2.7-.2s.3 0 .4.1.2.1.3.3l1 1.4c-.4.5-1 1-1.4 1.2s-1 .6-1.7.8-1.2.3-1.8.4-1.2.1-1.7.1c-1 0-2-.2-3-.6s-1.8-1-2.5-1.6-1.3-1.6-1.7-2.7-.6-2.3-.6-3.7c0-1 .2-2 .5-3 .4-1 1-1.8 1.5-2.5s1.5-1.3 2.4-1.7c1-.2 2-.4 3.3-.4zm0 2.7c-1 0-2 .3-2.6 1s-1 1.5-1.2 2.7h7.2c0-.5-.1-1-.2-1.4s-.3-.8-.6-1.2c-.3-.3-.6-.6-1-.8s-1-.2-1.5-.2zm14-9.6v23h-3.8v-23h3.8zm15.5 10.5c-.1.1-.2.3-.3.3-.1.1-.3.1-.5.1s-.4-.1-.6-.2-.4-.3-.7-.4-.6-.3-1-.4-.8-.2-1.3-.2c-.7 0-1.3.1-1.8.4-.5.2-1 .6-1.3 1-.3.5-.6 1-.8 1.7-.2.6-.2 1.4-.2 2.2s.1 1.6.3 2.3.4 1.2.8 1.7.8.8 1.2 1c.5.2 1 .3 1.6.3a6.06 6.06 0 0 0 1.5-.2c.4-.1.7-.3 1-.5s.5-.3.7-.5c.2-.1.4-.2.6-.2.3 0 .5.1.7.4l1 1.4c-.4.5-1 1-1.4 1.2s-1 .6-1.5.8-1 .3-1.7.4-1 .1-1.7.1c-1 0-2-.2-2.8-.6s-1.6-1-2.3-1.6c-.6-.7-1.2-1.6-1.5-2.6-.4-1-.6-2.2-.6-3.5 0-1.2.2-2.3.5-3.2.3-1 .8-2 1.5-2.6s1.5-1.3 2.4-1.7c1-.4 2-.6 3.3-.6s2.2.2 3 .6 1.7 1 2.4 1.6l-.8 1.5zm10.4-3.6c1.2 0 2.3.2 3.2.6 1 .4 1.8 1 2.5 1.6s1.2 1.6 1.6 2.6.6 2 .6 3.4-.2 2.4-.6 3.4-1 2-1.6 2.6-1.5 1.3-2.5 1.6c-1 .4-2 .6-3.2.6s-2.3-.2-3.2-.6c-1-.4-1.8-1-2.5-1.6s-1.2-1.6-1.6-2.6-.6-2-.6-3.4.2-2.4.6-3.4 1-2 1.6-2.6 1.5-1.2 2.5-1.6c1-.5 2-.6 3.2-.6zm0 13.4c1.3 0 2.3-.4 3-1.3s1-2.2 1-4-.3-3-1-4-1.6-1.3-3-1.3-2.3.5-3 1.4c-.6 1-1 2.2-1 4s.3 3 1 4c.7.7 1.7 1.2 3 1.2zm11 2.7v-16h2.3c.5 0 .8.2 1 .7l.2 1.2 1-1s.6-.5 1-.7c.3-.2.7-.3 1-.4s.8-.2 1.3-.2c1 0 1.8.3 2.5.8s1 1.3 1.4 2.2c.2-.5.6-1 1-1.4.4-.4.8-.7 1.2-1s1-.4 1.4-.5 1-.2 1.5-.2c1 0 1.7.1 2.3.4.7.3 1.3.7 1.7 1.2.5.5.8 1 1 2 .2.7.4 1.6.4 2.6v10h-3.8v-10c0-1-.2-1.8-.7-2.3-.4-.5-1-.8-2-.8-.4 0-.8.1-1 .2s-.6.3-1 .6-.5.6-.6 1-.2.8-.2 1.3v10H240v-10c0-1-.2-1.8-.6-2.3s-1-.7-2-.7c-.5 0-1 .1-1.5.4s-1 .6-1.3 1v11.6h-4zm32.6-16c1 0 2 .2 2.8.5.8.3 1.6.8 2.2 1.4s1 1.4 1.4 2.3.5 2 .5 3v.7c0 .2-.1.3-.1.4-.1.1-.2.2-.3.2s-.3.1-.4.1h-9.8c.1 1.6.6 2.8 1.3 3.6.8.8 1.8 1 3 1 .6 0 1.2-.1 1.6-.2.5-.1.8-.3 1.2-.5.3-.2.6-.3 1-.5.3-.1.5-.2.7-.2s.3 0 .4.1.2.1.3.3l1 1.4c-.4.5-1 1-1.4 1.2s-1 .6-1.7.8-1.2.3-1.8.4-1.2.1-1.7.1c-1 0-2-.2-3-.6s-1.8-1-2.5-1.6-1.3-1.6-1.7-2.7-.6-2.3-.6-3.7c0-1 .2-2 .5-3 .4-1 1-1.8 1.5-2.5s1.5-1.3 2.4-1.7c1-.2 2.2-.4 3.3-.4zm.1 2.7c-1 0-2 .3-2.6 1s-1 1.5-1.2 2.7h7.2c0-.5-.1-1-.2-1.4s-.3-.8-.6-1.2c-.3-.3-.6-.6-1-.8s-1-.2-1.5-.2zM284.7 27c-1.4 0-2.4-.4-3.2-1.2-.7-.8-1-2-1-3.2v-9h-1.6c-.2 0-.4-.1-.5-.2s-.2-.3-.2-.6v-1.5l2.6-.4.8-4.3a.55.55 0 0 1 .3-.5c.1-.1.3-.2.6-.2h2v5h4.2v2.7h-4.2v8.6c0 .5.1 1 .4 1.2.2.3.6.4 1 .4.2 0 .4 0 .6-.1s.3-.1.4-.2.2-.1.3-.2.2-.1.3-.1.2 0 .3.1.1.1.2.3l1 2c-.6.5-1.2.8-2 1-1 .1-1.7.3-2.4.3zm13.5-16.4c1.2 0 2.3.2 3.2.6 1 .4 1.8 1 2.5 1.6s1.2 1.6 1.6 2.6.6 2 .6 3.4-.2 2.4-.6 3.4-1 2-1.6 2.6-1.5 1.3-2.5 1.6c-1 .4-2 .6-3.2.6s-2.3-.2-3.2-.6c-1-.4-1.8-1-2.5-1.6s-1.2-1.6-1.6-2.6-.6-2-.6-3.4.2-2.4.6-3.4 1-2 1.6-2.6 1.5-1.2 2.5-1.6c1-.5 2-.6 3.2-.6zm0 13.4c1.3 0 2.3-.4 3-1.3s1-2.2 1-4-.3-3-1-4-1.6-1.3-3-1.3-2.3.5-3 1.4c-.6 1-1 2.2-1 4s.3 3 1 4c.7.7 1.7 1.2 3 1.2z"/></g></svg>