<svg xmlns="http://www.w3.org/2000/svg" width="330" height="85" viewBox="140 -10 360 70" style="enable-background:new 140 -10 330 70;"><style><![CDATA[.Y{fill:#fff}]]></style><path class="Y" d="M171.8 58.6c-3 0-5.7-.6-8.2-1.7-2.6-1.2-4.8-2.7-6.8-4.5-2-2-3.5-4.2-4.5-6.8-1.2-2.6-1.7-5.3-1.7-8.3a21.24 21.24 0 0 1 1.7-8.3c1.2-2.6 2.7-4.8 4.5-6.8 2-2 4.2-3.5 6.8-4.5 2.6-1.2 5.3-1.7 8.2-1.7a21.24 21.24 0 0 1 8.3 1.7c2.6 1.2 4.8 2.7 6.8 4.5 2 2 3.5 4.2 4.5 6.8 1.2 2.6 1.7 5.3 1.7 8.3s-.6 5.7-1.7 8.3c-1.2 2.6-2.7 4.8-4.5 6.8-2 2-4.2 3.5-6.8 4.5s-5.3 1.7-8.3 1.7zm0-35c-2 0-3.6.4-5.2 1.2-1.7.8-3 1.8-4.2 3-1.2 1.3-2.2 2.7-3 4.5s-1 3.5-1 5.3a13.59 13.59 0 0 0 1.1 5.3c.7 1.7 1.7 3.2 3 4.5s2.6 2.3 4.2 3 3.4 1.2 5.2 1.2c2 0 3.6-.4 5.2-1.2 1.7-.8 3-1.8 4.2-3s2.2-2.7 3-4.5c.7-1.7 1-3.5 1-5.3s-.4-3.6-1-5.3-1.7-3.2-3-4.5-2.6-2.3-4.2-3c-1.6-1-3.3-1.2-5.2-1.2zm34.4 34.3h-4.4c-.5 0-1-.1-1.2-.5-.4-.4-.5-.7-.5-1.2V18.7c0-.5.1-1 .5-1.2.4-.4.7-.5 1.2-.5h16.8c2 0 4 .4 5.8 1 1.7.7 3.2 1.7 4.4 3 .6.6 1.2 1.3 1.7 2 .5.7 1 1.6 1.2 2.4.6 1.7 1 3.7 1 5.7 0 3.2-.8 6-2.3 8-1.2 1.8-2.7 3.2-4.7 4.2-.4.2-.6.5-.8 1-.1.4 0 .8.3 1.2l4 5.2 4 5.3c.3.4.4.8.2 1.2-.1.4-.4.6-1 .6h-5.7c-.5 0-1-.1-1.5-.4s-1-.6-1.2-1c-.6-1-1.3-1.7-2-2.5-.6-1-1.2-1.7-2-2.5l-3.7-5.2c-.3-.4-.7-.7-1.2-1s-1-.4-1.5-.4h-4.3c-.5 0-1 .1-1.2.5-.4.4-.5.7-.5 1.2v9.6c0 .5-.1 1-.5 1.2-.3.3-.7.4-1 .4zm3.4-20h9c.6 0 1.4-.1 2.2-.4s1.5-.7 2-1.3 1-1.3 1.4-2.2c.4-.8.6-1.8.6-3 0-.6-.1-1.4-.2-2.2-.1-.4-.2-.8-.4-1.2-.1-.4-.3-.8-.5-1.2-.4-.7-1-1.4-2-2-1-.5-2-.8-3.3-.8h-9c-.5 0-1 .1-1.2.5-.4.4-.5.7-.5 1.2V36c0 .5.1 1 .5 1.2.3.5.6.7 1.2.7zm32.3 20c-.5 0-1-.1-1.2-.5s-.5-.7-.5-1.2V18.7c0-.5.1-1 .5-1.2.3-.4.7-.5 1.2-.5h14.4c5.8 0 10.6 1.7 14.4 5.2 2 2 3.5 4 4.5 6.6 1 2.7 1.6 5.6 1.6 8.7 0 1.7-.1 3.2-.4 4.6s-.6 2.8-1.2 4c-1 2.6-2.4 4.8-4.5 6.7-2 1.7-4 3-6.4 3.8s-5 1.3-8 1.3l-14.4-.2zm7.8-7h6.7c1.4 0 3-.1 4.4-.5 1.4-.4 2.8-1 4-2 1.2-1 2.2-2.3 3-4 .8-1.7 1.2-4 1.2-7 0-2.8-.4-5.2-1.2-7-.8-1.8-1.8-3.2-3-4s-2.6-1.7-4-2c-1.5-.4-3-.5-4.4-.5h-6.7c-.5 0-1 .1-1.2.5s-.5.7-.5 1.2v23.5c0 .5.1 1 .5 1.2.5.3.8.5 1.3.5zm40.6-25.3v6.8c0 .5.1 1 .5 1.2.4.4.7.5 1.2.5h16.3c.5 0 1 .1 1.2.5s.5.7.5 1.2v3.7c0 .5-.1 1-.5 1.2-.4.4-.7.5-1.2.5H292c-.5 0-1 .1-1.2.5-.4.4-.5.7-.5 1.2V49c0 .5.1 1 .5 1.2.4.4.7.5 1.2.5h18.8c.5 0 1 .1 1.2.5s.5.7.5 1.2V56c0 .5-.1 1-.5 1.2s-.7.5-1.2.5H284c-.5 0-1-.1-1.2-.5s-.5-.7-.5-1.2V18.7c0-.5.1-1 .5-1.2.4-.4.7-.5 1.2-.5h26.7c.5 0 1 .1 1.2.5.4.4.5.7.5 1.2v3.5c0 .5-.1 1-.5 1.2-.4.4-.7.5-1.2.5H292c-.5 0-1 .1-1.2.5-.4.3-.5.7-.5 1.2zM325 57.8h-4.4c-.5 0-1-.1-1.2-.5-.4-.4-.5-.7-.5-1.2V18.7c0-.5.1-1 .5-1.2.4-.4.7-.5 1.2-.5h17c2 0 4 .4 5.8 1 1.7.7 3.2 1.7 4.4 3 .6.6 1.2 1.3 1.7 2 .5.7 1 1.6 1.2 2.4.6 1.7 1 3.7 1 5.7 0 3.2-.8 6-2.3 8-1.2 1.8-2.7 3.2-4.7 4.2-.4.2-.6.5-.8 1-.1.4 0 .8.3 1.2l4 5.2 4 5.3c.3.4.4.8.2 1.2-.1.4-.4.6-1 .6h-5.7c-.5 0-1-.1-1.5-.4s-1-.6-1.2-1c-.6-1-1.3-1.7-2-2.5a23.47 23.47 0 0 0-1.9-2.5l-3.7-5.2c-.3-.4-.7-.7-1.2-1s-1-.4-1.5-.4h-4.3c-.5 0-1 .1-1.2.5-.4.4-.5.7-.5 1.2v9.6c0 .5-.1 1-.5 1.2-.2.3-.7.4-1.2.4zm3.5-20h9c.6 0 1.4-.1 2.2-.4s1.5-.7 2-1.3 1-1.3 1.4-2.2c.4-.8.6-1.8.6-3 0-.6-.1-1.4-.2-2.2-.1-.4-.2-.8-.4-1.2-.1-.4-.3-.8-.5-1.2-.4-.7-1-1.4-2-2-1-.5-2-.8-3.3-.8h-9c-.5 0-1 .1-1.2.5-.4.4-.5.7-.5 1.2V36c0 .5.1 1 .5 1.2.2.5.7.7 1.2.7zm30 18.5l19.4-38.7c.2-.4.6-.6 1.2-.6.5 0 1 .2 1.2.6l19.4 38.7c.2.4.2.8.1 1s-.5.4-1 .4h-5.2c-.5 0-1-.1-1.4-.4s-.8-.6-1-1.2l-1.7-3.4c-.2-.4-.6-.8-1-1s-1-.4-1.4-.4h-16c-.5 0-1 .1-1.4.4s-.8.6-1 1.2l-1.7 3.3c-.2.4-.6.8-1 1.2-.4.3-1 .4-1.4.4h-5c-.5 0-.8-.1-1-.4-.3-.3-.3-.7-.1-1zm16.4-11.7h8.3c.5 0 .8-.1 1-.5.1-.3.1-.6 0-1l-4.4-9.2c-.2-.4-.4-.6-.7-.6s-.6.2-.7.6l-4.4 9.2c-.2.4-.2.8 0 1.2 0 .2.4.4 1 .4zm60 8v3.5c0 .5-.1 1-.5 1.2-.4.4-.7.5-1.2.5h-26c-.5 0-1-.1-1.2-.5-.4-.4-.5-.7-.5-1.2V18.7c0-.5.1-1 .5-1.2.4-.4.7-.5 1.2-.5h4.4c.5 0 1 .1 1.2.5.4.4.5.7.5 1.2v30.5c0 .5.1 1 .5 1.2.4.4.7.5 1.2.5H433c.5 0 1 .1 1.2.5.4.3.5.7.5 1.3zm35.4 0v3.5c0 .5-.1 1-.5 1.2-.4.4-.7.5-1.2.5h-26c-.5 0-1-.1-1.2-.5-.4-.4-.5-.7-.5-1.2V18.7c0-.5.1-1 .5-1.2.4-.4.7-.5 1.2-.5h4.4c.5 0 1 .1 1.2.5.4.4.5.7.5 1.2v30.5c0 .5.1 1 .5 1.2.4.4.7.5 1.2.5h18.2c.5 0 1 .1 1.2.5.3.3.5.7.5 1.3zM154 21.4h-.3c-.5-.1-1-.4-1-1-.3-1-1-2.4-1.7-3.8-1.7 1.4-4.2 2.4-7 1-3.2-1.7-4.6-5-3.5-8 1-3 4-5 7-4.7 0-.3-.1-.6-.1-.8 0-.4-.1-.7-.1-1.2-.2-2.8.7-7 4-9.5 5.6-4.4 10.6-3.7 13.2-1.7 1.3 1 2.2 2.3 2.5 3.7 1.4-.7 3-.8 4.3-.5 2.2.6 4.2 2.8 4.3 5 .2 3-1.2 5.2-3.7 6.3-1.2.5-2.4.6-3.6.3-.1.6-.4 1-1 1.2-.7.2-1.5-.2-1.7-1 0-.1-.6-2-1-2.8-.1-.6.1-1.3.7-1.6s1.3-.1 1.7.4c1 1 2.4 1.4 3.7 1s2-1.8 2-3.5c-.1-1-1-2.2-2.2-2.4-1.3-.3-3 0-3.8 2-.1.1-.1.4-.2.5-.3.7-1 1-1.8.8-.7-.3-1-1-1-1.7.1-.2.1-.4.2-.6.6-1.8.1-3.6-1.4-4.7-3-2.2-7-.4-9.8 1.7-2.6 2-3 5.4-3 7 0 .4.1.7.1 1 .1 1.4.3 2.6-.6 3.5-.6.5-1.3.6-2.2.4-2-.4-3.7 1.2-4.3 2.8-.3.7-1 3.2 2 4.7 3 1.5 5-1.4 5-1.6.3-.4.7-.6 1.2-.6s1 .3 1.2.7c.1.1 1.2 2.2 2 4 2.5-2.2 5.4-3.7 5.5-3.7.6-.4 1.5-.1 2 .6.4.6.1 1.5-.6 2-.1 0-4 2.2-6.3 4.7-.1 0-.5.2-.8.2zm.1-9.2c-.2 0-.4-.1-.6-.2-.6-.4-.7-1-.4-1.7.1-.1 2-2.8 7.2-5.2.6-.3 1.3 0 1.6.6s0 1.3-.6 1.6c-4.6 2-6.2 4.3-6.2 4.4-.2.3-.7.5-1 .5z"/><path d="M480.2 66.6h-61c-2.2 0-4-1.8-4-4V49c0-2.2 1.8-4 4-4h61c2.2 0 4 1.8 4 4v13.6c0 2.2-1.8 4-4 4z" fill="#e63c2f"/><path class="Y" d="M249.4 408c-3 0-5.7-.6-8.2-1.7-2.6-1.2-4.8-2.7-6.8-4.5-2-2-3.5-4.2-4.5-6.8-1.2-2.6-1.7-5.3-1.7-8.3a21.24 21.24 0 0 1 1.7-8.3c1.2-2.6 2.7-4.8 4.5-6.8 2-2 4.2-3.5 6.8-4.5 2.6-1.2 5.3-1.7 8.2-1.7a21.24 21.24 0 0 1 8.3 1.7c2.6 1.2 4.8 2.7 6.8 4.5 2 2 3.5 4.2 4.5 6.8 1.2 2.6 1.7 5.3 1.7 8.3a21.24 21.24 0 0 1-1.7 8.3c-1.2 2.6-2.7 4.8-4.5 6.8-2 2-4.2 3.5-6.8 4.5-2.6 1-5.3 1.7-8.3 1.7zm0-35c-2 0-3.6.4-5.2 1.2-1.7.8-3 1.8-4.2 3-1.2 1.3-2.2 2.7-3 4.5-.7 1.7-1 3.5-1 5.3a13.22 13.22 0 0 0 1.1 5.3c.7 1.7 1.7 3.2 3 4.5s2.6 2.3 4.2 3 3.4 1.2 5.2 1.2 3.6-.4 5.2-1.2c1.7-.8 3-1.8 4.2-3s2.2-2.7 3-4.5c.7-1.7 1-3.5 1-5.3s-.4-3.6-1-5.3-1.7-3.2-3-4.5-2.6-2.3-4.2-3c-1.6-1-3.3-1.2-5.2-1.2zm34.4 34.3h-4.4c-.5 0-1-.1-1.2-.5s-.5-.7-.5-1.2V368c0-.5.1-1 .5-1.2.4-.4.7-.5 1.2-.5h16.8c2 0 4 .4 5.8 1 1.7.7 3.2 1.7 4.4 3 .6.6 1.2 1.3 1.7 2 .5.7 1 1.6 1.2 2.4.6 1.7 1 3.7 1 5.7 0 3.2-.8 6-2.3 8-1.2 1.8-2.7 3.2-4.7 4.2-.4.2-.6.5-.8 1-.1.4 0 .8.3 1.2l4 5.2 4 5.3c.3.4.4.8.2 1.2-.1.4-.4.6-1 .6h-5.7c-.5 0-1-.1-1.5-.4s-1-.6-1.2-1c-.6-1-1.3-1.7-2-2.5-.6-1-1.2-1.7-2-2.5l-3.7-5.2c-.3-.4-.7-.7-1.2-1s-1-.4-1.5-.4H287c-.5 0-1 .1-1.2.5-.4.4-.5.7-.5 1.2v9.6c0 .5-.1 1-.5 1.2-.1.4-.6.5-1 .5zm3.4-20h9c.6 0 1.4-.1 2.2-.4s1.5-.7 2-1.3 1-1.3 1.4-2.2c.4-.8.6-1.8.6-3 0-.6-.1-1.4-.2-2.2-.1-.4-.2-.8-.4-1.2-.1-.4-.3-.8-.5-1.2-.4-.7-1-1.4-2-2-1-.5-2-.8-3.3-.8h-9c-.5 0-1 .1-1.2.5s-.5.7-.5 1.2v10.6c0 .5.1 1 .5 1.2s.7.7 1.2.7zm32.3 20c-.5 0-1-.1-1.2-.5s-.5-.7-.5-1.2V368c0-.5.1-1 .5-1.2.3-.4.7-.5 1.2-.5H334c5.8 0 10.6 1.7 14.4 5.2 2 2 3.5 4 4.5 6.6 1 2.7 1.6 5.6 1.6 8.7 0 1.7-.1 3.2-.4 4.6s-.6 2.8-1.2 4c-1 2.6-2.4 4.8-4.5 6.7-2 1.7-4 3-6.4 3.8s-5 1.3-8 1.3l-14.5-.1zm8-7h6.7c1.4 0 3-.1 4.4-.5 1.4-.4 2.8-1 4-2 1.2-1 2.2-2.3 3-4 .8-1.7 1.2-4 1.2-7 0-2.8-.4-5.2-1.2-7-.8-1.8-1.8-3.2-3-4s-2.6-1.7-4-2c-1.5-.4-3-.5-4.4-.5h-6.7c-.5 0-1 .1-1.2.5s-.5.7-.5 1.2v23.5c0 .5.1 1 .5 1.2s.8.5 1.3.5zM368 375v6.8c0 .5.1 1 .5 1.2.4.4.7.5 1.2.5H386c.5 0 1 .1 1.2.5s.5.7.5 1.2v3.7c0 .5-.1 1-.5 1.2s-.7.5-1.2.5h-16.3c-.5 0-1 .1-1.2.5-.4.4-.5.7-.5 1.2v6.2c0 .5.1 1 .5 1.2.4.4.7.5 1.2.5h18.8c.5 0 1 .1 1.2.5.4.4.5.7.5 1.2v3.6c0 .5-.1 1-.5 1.2-.4.4-.7.5-1.2.5h-26.7c-.5 0-1-.1-1.2-.5-.4-.4-.5-.7-.5-1.2V368c0-.5.1-1 .5-1.2.4-.4.7-.5 1.2-.5h26.7c.5 0 1 .1 1.2.5.4.4.5.7.5 1.2v3.5c0 .5-.1 1-.5 1.2-.4.4-.7.5-1.2.5h-18.8c-.5 0-1 .1-1.2.5-.4.4-.5.8-.5 1.2zm34.6 32.3H398c-.5 0-1-.1-1.2-.5-.4-.4-.5-.7-.5-1.2V368c0-.5.1-1 .5-1.2.4-.4.7-.5 1.2-.5h17c2 0 4 .4 5.8 1 1.7.7 3.2 1.7 4.4 3 .6.6 1.2 1.3 1.7 2 .5.7 1 1.6 1.2 2.4.6 1.7 1 3.7 1 5.7 0 3.2-.8 6-2.3 8-1.2 1.8-2.7 3.2-4.7 4.2-.4.2-.6.5-.8 1-.1.4 0 .8.3 1.2l4 5.2 4 5.3c.3.4.4.8.2 1.2-.1.4-.4.6-1 .6H423c-.5 0-1-.1-1.5-.4s-1-.6-1.2-1c-.6-1-1.3-1.7-2-2.5-.6-1-1.2-1.7-2-2.5l-3.7-5.2c-.3-.4-.7-.7-1.2-1s-1-.4-1.5-.4h-4.3c-.5 0-1 .1-1.2.5s-.5.7-.5 1.2v9.6c0 .5-.1 1-.5 1.2-.1.4-.6.5-1 .5zm3.5-20h9c.6 0 1.4-.1 2.2-.4s1.5-.7 2-1.3 1-1.3 1.4-2.2c.4-.8.6-1.8.6-3 0-.6-.1-1.4-.2-2.2-.1-.4-.2-.8-.4-1.2-.1-.4-.3-.8-.5-1.2-.4-.7-1-1.4-2-2-1-.5-2-.8-3.3-.8h-9c-.5 0-1 .1-1.2.5-.4.4-.5.7-.5 1.2v10.6c0 .5.1 1 .5 1.2.3.5.7.7 1.2.7zm30 18.5l19.4-38.7c.2-.4.6-.6 1.2-.6.5 0 1 .2 1.2.6l19.4 38.7c.2.4.2.8.1 1s-.5.4-1 .4H471c-.5 0-1-.1-1.4-.4s-.8-.6-1-1.2l-1.7-3.4c-.2-.4-.6-.8-1-1s-1-.4-1.4-.4h-16c-.5 0-1 .1-1.4.4s-.8.6-1 1.2l-1.7 3.3c-.2.4-.6.8-1 1.2-.4.3-1 .4-1.4.4h-5c-.5 0-.8-.1-1-.4-.3-.3-.3-.7-.1-1zm16.4-11.7h8.3c.5 0 .8-.1 1-.5.1-.3.1-.6 0-1l-4.4-9.2c-.2-.4-.4-.6-.7-.6s-.6.2-.7.6l-4.4 9.2c-.2.4-.2.8 0 1.2 0 .1.4.4 1 .4zm60 8v3.5c0 .5-.1 1-.5 1.2-.4.4-.7.5-1.2.5h-26c-.5 0-1-.1-1.2-.5-.4-.4-.5-.7-.5-1.2V368c0-.5.1-1 .5-1.2.4-.4.7-.5 1.2-.5h4.4c.5 0 1 .1 1.2.5s.5.7.5 1.2v30.5c0 .5.1 1 .5 1.2s.7.5 1.2.5h18.2c.5 0 1 .1 1.2.5.4.4.5.8.5 1.3zm35.4 0v3.5c0 .5-.1 1-.5 1.2-.4.4-.7.5-1.2.5h-26c-.5 0-1-.1-1.2-.5-.4-.4-.5-.7-.5-1.2V368c0-.5.1-1 .5-1.2.4-.4.7-.5 1.2-.5h4.4c.5 0 1 .1 1.2.5.4.4.5.7.5 1.2v30.5c0 .5.1 1 .5 1.2s.7.5 1.2.5H546c.5 0 1 .1 1.2.5.4.4.5.8.5 1.3zm-316-31.2h-.3c-.5-.1-1-.4-1-1-.3-1-1-2.4-1.7-3.8-1.7 1.4-4.2 2.4-7 1-3.2-1.7-4.6-5-3.5-8 1-3 4-5 7-4.7 0-.3-.1-.6-.1-.8 0-.4-.1-.7-.1-1.2-.2-2.8.7-7 4-9.5 5.6-4.4 10.6-3.7 13.2-1.7 1.3 1 2.2 2.3 2.5 3.7 1.4-.7 3-.8 4.3-.5 2.2.6 4.2 2.8 4.3 5 .2 3-1.2 5.2-3.7 6.3-1.2.5-2.4.6-3.6.3-.1.6-.4 1-1 1.2-.7.2-1.5-.2-1.7-1 0-.1-.6-2-1-2.8-.1-.6.1-1.3.7-1.6s1.3-.1 1.7.4c1 1 2.4 1.4 3.7 1s2-1.8 2-3.5c-.1-1-1-2.2-2.2-2.4-1.3-.3-3 0-3.8 2-.1.1-.1.4-.2.5-.3.7-1 1-1.8.8-.7-.3-1-1-1-1.7.1-.2.1-.4.2-.6.6-1.8.1-3.6-1.4-4.7-3-2.2-7-.4-9.8 1.7-2.6 2-3 5.4-3 7 0 .4.1.7.1 1 .1 1.4.3 2.6-.6 3.5-.6.5-1.3.6-2.2.4-2-.4-3.7 1.2-4.3 2.8-.3.7-1 3.2 2 4.7 3 1.5 5-1.4 5-1.6.3-.4.7-.6 1.2-.6s1 .3 1.2.7c.1.1 1.2 2.2 2 4 2.5-2.2 5.4-3.7 5.5-3.7.6-.4 1.5-.1 2 .6.4.6.1 1.5-.6 2-.1 0-4 2.2-6.3 4.7-.1 0-.4.2-.8.2zm.1-9.2c-.2 0-.4-.1-.6-.2-.6-.4-.7-1-.4-1.7.1-.1 2-2.8 7.2-5.2.6-.3 1.3 0 1.6.6s0 1.3-.6 1.6c-4.6 2-6.2 4.3-6.2 4.4-.2.3-.7.5-1 .5zM432.7 53c-.2.4-.4.8-.6 1s-.5.6-1 .8c-.2.1-.3.2-.6.3-.2 0-.2.1-.2.1s.1.1.3.1c.2.1.4.2.6.2.4.2.8.5 1 1 .4.4.6.8.8 1.3a4.01 4.01 0 0 1 .3 1.5c0 1-.1 1.8-.4 2.5s-.7 1.2-1.2 1.6-1 .7-1.7 1c-.3.1-.7.1-1 .2-.4 0-.7.1-1 .1h-7.4c-.2 0-.4-.1-.5-.2s-.2-.3-.2-.5V47.6c0-.2.1-.4.2-.5s.3-.2.5-.2h8c.3 0 .6.1 1 .1.7.2 1.2.4 1.6.8.5.4 1 1 1 1.5.3.6.4 1.4.4 2.4.1.5 0 .8-.1 1.2zM424 54h3.4c.3 0 .6-.1 1-.2.2-.1.4-.3.6-.5s.3-.4.4-.7c.1-.2.1-.5.1-.8s0-.5-.1-.7c-.1-.3-.2-.5-.4-.6-.1-.2-.3-.3-.6-.4-.2-.1-.4-.2-.7-.2H424c-.2 0-.4.1-.5.2s-.2.3-.2.5v2.7c0 .2.1.4.2.5s.3.2.5.2zm4.8 7.2c.2-.1.5-.3.7-.6a2.18 2.18 0 0 0 .5-.8c.1-.2.2-.5.2-.8 0-.6-.2-1-.7-1.5-.4-.4-1-.6-1.8-.6H424c-.2 0-.4.1-.5.2s-.2.3-.2.5v3c0 .2.1.4.2.5s.3.2.5.2h4c.3.2.6.1.8-.1zM440 50.6v3c0 .2.1.4.2.5s.3.2.5.2h7c.2 0 .4.1.5.2s.2.3.2.5v1.6c0 .2-.1.4-.2.5s-.3.2-.5.2h-7c-.2 0-.4.1-.5.2s-.2.3-.2.5v2.7c0 .2.1.4.2.5s.3.2.5.2h8c.2 0 .4.1.5.2s.2.3.2.5v1.5c0 .2-.1.4-.2.5s-.3.2-.5.2h-11.5c-.2 0-.4-.1-.5-.2s-.2-.3-.2-.5v-16c0-.2.1-.4.2-.5s.3-.2.5-.2H449c.2 0 .4.1.5.2s.2.3.2.5V49c0 .2-.1.4-.2.5s-.3.2-.5.2h-8c-.2 0-.4.1-.5.2-.2.2-.3.4-.3.6zm24-.7h-3.5c-.2 0-.4.1-.5.2s-.2.3-.2.5v13.2c0 .2-.1.4-.2.5s-.3.2-.5.2h-2c-.2 0-.4-.1-.5-.2s-.2-.3-.2-.5V50.6c0-.2-.1-.4-.2-.5s-.3-.2-.5-.2h-3.6c-.2 0-.4-.1-.5-.2s-.2-.3-.2-.5v-1.5c0-.2.1-.4.2-.5s.3-.2.5-.2h12c.2 0 .4.1.5.2s.2.3.2.5v1.5c0 .2-.1.4-.2.5-.3.1-.5.2-.7.2zm-1 14l8.4-16.7a.55.55 0 0 1 .5-.3.55.55 0 0 1 .5.3l8.4 16.7a.45.45 0 0 1 0 .5c-.1.1-.2.2-.4.2h-2.2c-.2 0-.4-.1-.6-.2s-.4-.3-.4-.5l-.7-1.4c-.1-.2-.2-.3-.4-.5-.2-.1-.4-.2-.6-.2h-7c-.2 0-.4.1-.6.2s-.4.3-.4.5L467 64c-.1.2-.2.4-.4.5s-.4.2-.6.2h-2.2c-.2 0-.4-.1-.4-.2-.4-.2-.4-.3-.3-.5zm7-5h3.6c.2 0 .4-.1.4-.2s.1-.3 0-.5l-2-4c-.1-.2-.2-.3-.3-.3s-.2.1-.3.3l-2 4c-.1.2-.1.4 0 .5 0 .2.1.2.4.2z"/></svg>