<?xml version="1.0" encoding="utf-8"?>
<!-- Generator: Adobe Illustrator 19.0.0, SVG Export Plug-In . SVG Version: 6.00 Build 0)  -->
<svg version="1.1" id="Layer_1" xmlns="http://www.w3.org/2000/svg" xmlns:xlink="http://www.w3.org/1999/xlink" x="0px" y="0px"
	 viewBox="-233 235 32 32" style="enable-background:new -233 235 32 32;" xml:space="preserve">
<style type="text/css">
	.st0{fill:#F37C1F;}
	.st1{fill:#E6E6E6;}
</style>
<title>checkbox-checked</title>
<g id="XMLID_1_">
	<g>
		<polygon class="st0" points="-495.6,628.4 -508,640.8 -515.4,633.4 -512.6,630.6 -508,635.2 -498.4,625.6 		"/>
		<path class="st1" d="M-490,620v24c0,2.2-1.8,4-4,4h-24c-2.2,0-4-1.8-4-4v-24c0-2.2,1.8-4,4-4h24C-491.8,616-490,617.8-490,620z
			 M-508,640.8l12.4-12.4l-2.8-2.8l-9.6,9.6l-4.6-4.6l-2.8,2.8L-508,640.8z"/>
	</g>
</g>
<circle class="st1" cx="-217" cy="251" r="15.5"/>
</svg>
