<svg xmlns="http://www.w3.org/2000/svg" viewBox="0 0 500 500" width="100" height="100"><path d="M317.7 403.2c12.5 16.4 86.6 12 86.6 12 32.8-25 73.8-109 81.5-165.3s-9-148.3-34-181c0 0-70.2-24.3-86.6-12-16.4 12.5-28.3 99 .6 103s45.3-8.5 57.7 8c12.5 16.4 8.5 45.3 4.5 74-4 29-8 57.7-24.3 70.2s-29-4-57.7-8-40.7 82.7-28.3 99z" fill="#8C8377"/><path d="M89.3 118.8H37.5a12.04 12.04 0 0 1-12-12V55a12.04 12.04 0 0 1 12-12h51.8a12.04 12.04 0 0 1 12 12v51.8a12.04 12.04 0 0 1-12 12zm0 99.2H37.5A12.04 12.04 0 0 1 25.5 206v-51.8a12.04 12.04 0 0 1 12-12.001h51.8a12.04 12.04 0 0 1 12 12.001V206A12.04 12.04 0 0 1 89.3 218zm0 94H37.5c-6.6 0-12-5.4-12-12v-51.8a12.04 12.04 0 0 1 12-12h51.8a12.04 12.04 0 0 1 12 12V300c0 6.6-5.4 12-12 12zm99.4-193.2H137a12.04 12.04 0 0 1-12-12v-51.8c0-6.6 5.4-12 12-12h51.8c6.6 0 12 5.4 12 12v51.8a12.04 12.04 0 0 1-12 12zm0 99.2H137a12.04 12.04 0 0 1-12-12.001v-51.8a12.04 12.04 0 0 1 12-12.001h51.8a12.04 12.04 0 0 1 12 12.001V206a12.04 12.04 0 0 1-12 12.001zm0 94H137c-6.6 0-12-5.4-12-12v-51.8a12.04 12.04 0 0 1 12-12h51.8a12.04 12.04 0 0 1 12 12V300c0 6.6-5.4 12-12 12zm99-193.2H236a12.04 12.04 0 0 1-12-12v-51.8c0-6.6 5.4-12 12-12h51.8c6.6 0 12 5.4 12 12v51.8a12.04 12.04 0 0 1-12 12zm0 99.2H236a12.04 12.04 0 0 1-12-12.001v-51.8a12.04 12.04 0 0 1 12-12.001h51.8a12.04 12.04 0 0 1 12 12.001V206a12.04 12.04 0 0 1-12 12.001zm0 94H236c-6.6 0-12-5.4-12-12v-51.8a12.04 12.04 0 0 1 12-12h51.8a12.04 12.04 0 0 1 12 12V300c0 6.6-5.4 12-12 12z" fill="#999EAA"/><g fill="#B7BAC4"><path d="M93.3 121.8H41.5a12.04 12.04 0 0 1-12-12V58a12.04 12.04 0 0 1 12-12h51.8a12.04 12.04 0 0 1 12 12v51.8a12.04 12.04 0 0 1-12 12zm0 99.2H41.5c-6.6 0-12-5.4-12-12v-51.8a12.04 12.04 0 0 1 12-12h51.8a12.04 12.04 0 0 1 12 12V209c0 6.6-5.4 12-12 12zm0 94H41.5a12.04 12.04 0 0 1-12-12v-51.8c0-6.6 5.4-12 12-12h51.8c6.6 0 12 5.4 12 12V303a12.04 12.04 0 0 1-12 12zm99.4-193.2H141a12.04 12.04 0 0 1-12-12.001v-51.8A12.04 12.04 0 0 1 140.9 46h51.8A12.04 12.04 0 0 1 204.7 58v51.8a12.04 12.04 0 0 1-12 12.001zm0 99.2H141c-6.6 0-12-5.4-12-12v-51.8a12.04 12.04 0 0 1 12-12h51.8a12.04 12.04 0 0 1 12 12V209c0 6.6-5.4 12-12 12zm0 94H141a12.04 12.04 0 0 1-12-12v-51.8c0-6.6 5.4-12 12-12h51.8c6.6 0 12 5.4 12 12V303a12.04 12.04 0 0 1-12 12zm99-193.2H240a12.04 12.04 0 0 1-12-12.001v-51.8A12.04 12.04 0 0 1 239.9 46h51.8A12.04 12.04 0 0 1 303.7 58v51.8a12.04 12.04 0 0 1-12 12.001zm0 99.2H240c-6.6 0-12-5.4-12-12v-51.8a12.04 12.04 0 0 1 12-12h51.8a12.04 12.04 0 0 1 12 12V209c0 6.6-5.4 12-12 12z"/><path d="M291.7 315H240a12.04 12.04 0 0 1-12-12v-51.8a12.04 12.04 0 0 1 12-12h51.8a12.04 12.04 0 0 1 12 12V303a12.04 12.04 0 0 1-12 12zM92.3 121.8H40.5a12.04 12.04 0 0 1-12-12.001V58A12.04 12.04 0 0 1 40.5 46h51.8A12.04 12.04 0 0 1 104.3 58v51.8a12.04 12.04 0 0 1-12 12.001zm0 99.2H40.5c-6.6 0-12-5.4-12-12v-51.8a12.04 12.04 0 0 1 12-12h51.8a12.04 12.04 0 0 1 12 12V209c0 6.6-5.4 12-12 12zm0 94H40.5a12.04 12.04 0 0 1-12-12v-51.8c0-6.6 5.4-12 12-12h51.8c6.6 0 12 5.4 12 12V303a12.04 12.04 0 0 1-12 12zm99.4-193.2H140a12.04 12.04 0 0 1-12-12.001v-51.8A12.04 12.04 0 0 1 139.9 46h51.8A12.04 12.04 0 0 1 203.7 58v51.8a12.04 12.04 0 0 1-12 12.001zm0 99.2H140c-6.6 0-12-5.4-12-12v-51.8a12.04 12.04 0 0 1 12-12h51.8a12.04 12.04 0 0 1 12 12V209c0 6.6-5.4 12-12 12zm0 94H140a12.04 12.04 0 0 1-12-12v-51.8c0-6.6 5.4-12 12-12h51.8c6.6 0 12 5.4 12 12V303a12.04 12.04 0 0 1-12 12zm99-193.2H239a12.04 12.04 0 0 1-12-12.001v-51.8A12.04 12.04 0 0 1 238.9 46h51.8A12.04 12.04 0 0 1 302.7 58v51.8a12.04 12.04 0 0 1-12 12.001zm0 99.2H239c-6.6 0-12-5.4-12-12v-51.8a12.04 12.04 0 0 1 12-12h51.8a12.04 12.04 0 0 1 12 12V209c0 6.6-5.4 12-12 12z"/></g><path d="M69.5 264c1-5 3.5-10 7-14 9-10.3 23-13.5 31.2-6.3 5 4.2 6.8 11.4 5.3 18.8l-9 45.2 116.8-133c9.3-10.5 23.2-13.2 31.4-6 8.3 7.3 6.6 22-2.8 32.8l-74.3 84.6 3.7 3.2 12.5-14.2c9.3-10.5 23.2-13.2 31.4-6 8.3 7.3 6.6 22-2.8 32.8l-11.7 13.3 3.7 3.2 8.3-9.5c8-9 20.4-11.5 27.5-5.3 7.3 6.4 6 19-2.2 28.4l-8 9 3.7 3.2c7-7.8 17.4-9.8 23.5-4.5 6.3 5.6 4.8 16.8-2 24.7l-28.3 32.2c-8.5 9.6-18 18.5-28 26.3L148 468.3c-4.5 3.4-10 3.8-13.4.8L52 396.7c-4.6-4-6.4-10.7-5-18L69.5 264z" fill="#A37F58"/><path d="M290.7,315h-51.8c-6.6,0-12-5.4-12-12v-51.8c0-6.6,5.4-12,12-12h51.8c6.6,0,12,5.4,12,12V303 C302.7,309.6,297.3,315,290.7,315z" fill="#B7BAC4"/><g fill="#D7AA73"><path d="M77.5 271c1-5 3.5-10 7-14 9-10.3 23-13.5 31.2-6.3 5 4.2 6.8 11.4 5.3 18.8l-9 45.2 116.8-133c9.3-10.5 23.2-13.2 31.4-6 8.3 7.3 6.6 22-2.8 32.8l-74.3 84.6 3.7 3.2 12.5-14.2c9.3-10.5 23.2-13.2 31.4-6 8.3 7.3 6.6 22-2.8 32.8l-11.7 13.3 3.7 3.2 8.3-9.5c8-9 20.4-11.5 27.5-5.3 7.3 6.4 6 19-2.2 28.4l-8 9 3.7 3.2c7-7.8 17.4-9.8 23.5-4.5 6.3 5.6 4.8 16.8-2 24.7l-28.3 32.2c-8.5 9.6-18 18.5-28 26.3L156 475.3c-4.5 3.4-10 3.8-13.4.8L60 403.7c-4.6-4-6.4-10.7-5-18L77.5 271z"/><path d="M77.5 270c1-5 3.5-10 7-14 9-10.3 23-13.5 31.2-6.3 5 4.2 6.8 11.4 5.3 18.8l-9 45.2 116.8-133c9.3-10.5 23.2-13.2 31.4-6 8.3 7.3 6.6 22-2.8 32.8l-74.3 84.6 3.7 3.2 12.5-14.2c9.3-10.5 23.2-13.2 31.4-6 8.3 7.3 6.6 22-2.8 32.8l-11.7 13.3 3.7 3.2 8.3-9.5c8-9 20.4-11.5 27.5-5.3 7.3 6.4 6 19-2.2 28.4l-8 9 3.7 3.2c7-7.8 17.4-9.8 23.5-4.5 6.3 5.6 4.8 16.8-2 24.7l-28.3 32.2c-8.5 9.6-18 18.5-28 26.3L156 474.3c-4.5 3.4-10 3.8-13.4.8L60 402.7c-4.6-4-6.4-10.7-5-18L77.5 270z"/></g><path d="M309 396c12.5 16.4 86.6 12 86.6 12 32.8-25 73.8-109 81.5-165.3s-9-148.3-34-181c0 0-70.2-24.3-86.6-12s-28.3 99 .6 103 45.3-8.5 57.7 8c12.5 16.4 8.5 45.3 4.5 74s-8 57.7-24.3 70.2-29-4-57.7-8c-29-4-40.8 82.7-28.3 99z" fill="#E0CEB1"/><path d="M309 397c12.5 16.4 86.6 12 86.6 12 32.8-25 73.8-109 81.5-165.3s-9-148.3-34-181c0 0-70.2-24.3-86.6-12s-28.3 99 .6 103 45.3-8.5 57.7 8 8.5 45.3 4.5 74-8 57.7-24.3 70.2-29-4-57.7-8c-29-4-40.8 82.7-28.3 99z" fill="#AEA290"/></svg>