<?xml version="1.0" encoding="utf-8"?>
<!-- Generator: Adobe Illustrator 19.0.0, SVG Export Plug-In . SVG Version: 6.00 Build 0)  -->
<svg version="1.1" id="Layer_1" xmlns="http://www.w3.org/2000/svg" xmlns:xlink="http://www.w3.org/1999/xlink" x="0px" y="0px"
	 viewBox="0 1 23 23" style="enable-background:new 0 1 23 23;" xml:space="preserve">
<style type="text/css">
	.st0{fill:#FF7700;}
</style>
<title>star-o</title>
<g>
	<path class="st0" d="M17.8,23.1c-0.2,0-0.5-0.1-0.7-0.2L11.5,20l-5.6,2.9c-0.2,0.1-0.4,0.2-0.7,0.2c-0.6,0-0.9-0.4-0.9-1
		c0-0.1,0-0.2,0-0.3l1.1-6.3l-4.5-4.4c-0.2-0.2-0.4-0.5-0.4-0.9c0-0.5,0.4-0.9,1.1-1l6.2-0.9l2.8-5.7c0.2-0.5,0.6-0.7,1-0.7
		c0.4,0,0.8,0.3,1,0.8l2.8,5.6l6.2,0.9c0.7,0.1,1.1,0.5,1.1,1c0,0.3-0.1,0.6-0.5,0.9l-4.5,4.4l1.1,6.2c0,0.1,0,0.2,0,0.3
		C18.7,22.7,18.3,23.1,17.8,23.1z M15.8,19.5L15,14.7l3.5-3.4l-4.8-0.7l-2.2-4.4l-2.2,4.4l-4.8,0.7L8,14.7l-0.8,4.8l4.3-2.3
		L15.8,19.5z"/>
</g>
</svg>
