<?xml version="1.0" standalone="no"?>
<!DOCTYPE svg PUBLIC "-//W3C//DTD SVG 20010904//EN"
 "http://www.w3.org/TR/2001/REC-SVG-20010904/DTD/svg10.dtd">
<svg version="1.0" xmlns="http://www.w3.org/2000/svg"
 width="2048.000000pt" height="2048.000000pt" viewBox="0 0 2048.000000 2048.000000"
 preserveAspectRatio="xMidYMid meet">
<metadata>
Created by potrace 1.11, written by Peter Selinger 2001-2013
</metadata>
<g transform="translate(0.000000,2048.000000) scale(0.100000,-0.100000)"
fill="#000000" stroke="none">
<path d="M1625 20464 c-49 -7 -119 -21 -155 -30 -36 -9 -74 -18 -84 -20 -48
-9 -188 -60 -264 -95 -46 -22 -86 -39 -88 -39 -12 0 -218 -129 -284 -178 -96
-71 -299 -274 -373 -374 -149 -201 -285 -486 -322 -678 -2 -8 -8 -33 -13 -55
-6 -22 -14 -60 -17 -85 -4 -25 -11 -70 -15 -100 -12 -78 -11 -17048 1 -17130
15 -109 18 -122 34 -200 25 -118 89 -299 149 -420 244 -491 690 -856 1210
-990 61 -15 129 -31 151 -34 23 -4 50 -8 60 -10 11 -2 54 -7 95 -11 94 -9
16961 -10 17050 0 68 7 108 12 150 20 14 3 39 7 55 10 63 10 252 67 334 101
139 58 366 188 437 251 10 10 42 36 69 58 179 144 369 390 480 620 86 178 136
341 170 550 12 78 14 1227 14 8615 0 5149 -4 8550 -10 8588 -30 207 -73 358
-148 530 -236 535 -717 935 -1288 1072 -48 12 -104 23 -123 25 -19 3 -46 8
-60 12 -14 4 -3872 9 -8575 9 -7204 2 -8564 0 -8640 -12z"/>
</g>
</svg>
